<svg width="228.000000" height="133.118011" viewBox="0 0 228 133.118" fill="none" xmlns="http://www.w3.org/2000/svg" xmlns:xlink="http://www.w3.org/1999/xlink">
    <desc>
        Created with Pixso.
    </desc>
    <defs/>
    <path id="Price Range" d="M20.07 3C19.21 3 18.53 2.35 18.53 1.51C18.53 0.64 19.21 1.04e-5 20.07 1.04e-5C20.94 1.04e-5 21.64 0.64 21.64 1.51C21.64 2.35 20.94 3 20.07 3ZM3.79 13.66L1.36 13.66L1.36 1.78L5.83 1.78C8.31 1.78 10.11 3.33 10.11 5.61C10.11 7.88 8.31 9.46 5.83 9.46L3.79 9.46L3.79 13.66ZM55.57 9L58.94 13.66L56.2 13.66L53.12 9.46L51.34 9.46L51.34 13.66L48.91 13.66L48.91 1.78L53.38 1.78C55.86 1.78 57.66 3.33 57.66 5.61C57.66 7.12 56.87 8.35 55.57 9ZM3.79 3.92L3.79 7.34L5.83 7.34C6.96 7.34 7.63 6.64 7.63 5.61C7.63 4.6 6.93 3.92 5.83 3.92L3.79 3.92ZM53.38 3.92L51.34 3.92L51.34 7.32L53.38 7.32C54.51 7.32 55.18 6.64 55.18 5.61C55.18 4.6 54.47 3.92 53.38 3.92ZM41.81 8.69C41.81 9.12 41.75 9.57 41.65 10.02L35.4 10.02C35.69 11.16 36.61 11.79 37.9 11.79C38.78 11.79 39.61 11.48 40.39 10.89L41.39 12.54C40.33 13.42 39.14 13.87 37.83 13.87C35.08 13.93 32.9 11.79 32.95 9.21C32.9 6.64 35.04 4.5 37.61 4.55C40.08 4.55 41.81 6.37 41.81 8.69ZM100.13 8.69C100.13 9.12 100.08 9.57 99.97 10.02L93.73 10.02C94.01 11.16 94.93 11.79 96.23 11.79C97.11 11.79 97.94 11.48 98.71 10.89L99.72 12.54C98.66 13.42 97.47 13.87 96.16 13.87C93.4 13.93 91.22 11.79 91.28 9.21C91.22 6.64 93.37 4.5 95.94 4.55C98.41 4.55 100.13 6.37 100.13 8.69ZM27.97 13.87C25.36 13.93 23.16 11.77 23.2 9.19C23.2 6.58 25.32 4.55 27.97 4.55C29.71 4.55 31.06 5.38 31.84 6.75L30.15 8.06C29.59 7.25 28.94 6.76 28 6.76C26.64 6.76 25.66 7.81 25.66 9.19C25.66 10.62 26.64 11.64 28 11.64C28.92 11.64 29.57 11.17 30.15 10.36L31.84 11.66C31.06 13.03 29.7 13.87 27.97 13.87ZM63.74 4.55C66.06 4.55 67.56 5.9 67.56 8.37L67.56 13.66L65.33 13.66L65.33 12.79C64.68 13.46 63.74 13.87 62.61 13.87C60.72 13.87 59.53 12.78 59.53 11.21C59.53 9.61 60.83 8.62 62.9 8.62L65.13 8.62L65.13 8.22C65.13 7.23 64.55 6.66 63.47 6.66C62.55 6.66 61.91 7.03 61.11 7.88L59.85 6.39C60.88 5.16 62.18 4.55 63.74 4.55ZM74.74 4.55C76.81 4.55 78.09 5.97 78.09 8.13L78.09 13.66L75.67 13.66L75.67 8.46C75.67 7.43 75.01 6.73 74.02 6.73C73.03 6.73 72.33 7.43 72.33 8.46L72.33 13.66L69.9 13.66L69.9 4.75L72.13 4.75L72.13 5.56C72.76 4.93 73.68 4.55 74.74 4.55ZM87.14 5.86L87.14 4.75L89.37 4.75L89.37 12.67C89.37 15.57 87.55 17.11 84.76 17.11C83.09 17.11 81.63 16.56 80.39 15.46L81.67 13.77C82.66 14.5 83.49 14.92 84.57 14.92C86.01 14.92 86.94 14.2 86.94 12.81L86.94 12.33C86.29 13.03 85.36 13.39 84.22 13.39C81.76 13.39 79.96 11.57 79.96 8.96C79.96 6.31 81.79 4.55 84.22 4.55C85.5 4.55 86.51 5.02 87.14 5.86ZM16.57 4.64C16.87 4.64 17.13 4.68 17.36 4.75L17.36 6.89L16.71 6.89C15.25 6.89 14.32 7.68 14.32 9.21L14.32 13.66L11.89 13.66L11.89 4.75L14.12 4.75L14.12 5.81C14.71 5.07 15.58 4.64 16.57 4.64ZM21.3 13.66L18.87 13.66L18.87 4.75L21.3 4.75L21.3 13.66ZM37.52 6.51C36.5 6.51 35.67 7.21 35.4 8.31L39.45 8.31C39.43 7.21 38.59 6.51 37.52 6.51ZM95.85 6.51C94.82 6.51 94 7.21 93.73 8.31L97.78 8.31C97.76 7.21 96.91 6.51 95.85 6.51ZM84.73 11.34C85.95 11.34 86.98 10.45 86.98 8.92C86.98 7.39 85.97 6.62 84.73 6.62C83.41 6.62 82.42 7.5 82.42 8.94C82.42 10.38 83.43 11.34 84.73 11.34ZM63.26 12.09C64.32 12.09 65.13 11.35 65.13 10.33L65.13 10.22L63.22 10.22C62.43 10.22 61.98 10.53 61.98 11.12C61.98 11.71 62.48 12.09 63.26 12.09Z" fill="#3D3D3D" fill-opacity="1.000000" fill-rule="evenodd"/>
    <line id="Line 5" x1="17.000000" y1="43.118011" x2="226.000000" y2="43.118011" stroke="#46A358" stroke-opacity="0.200000" stroke-width="4.000000"/>
    <line id="Line 6" x1="17.000000" y1="43.118011" x2="178.000000" y2="43.118011" stroke="#46A358" stroke-opacity="1.000000" stroke-width="4.000000"/>
    <circle id="Ellipse 5" cx="19.500000" cy="43.618011" r="7.500000" fill="#46A358" fill-opacity="1.000000"/>
    <circle id="Ellipse 5" cx="19.500000" cy="43.618011" r="9.000000" stroke="#FFFFFF" stroke-opacity="1.000000" stroke-width="3.000000"/>
    <circle id="Ellipse 6" cx="174.500000" cy="43.618011" r="7.500000" fill="#46A358" fill-opacity="1.000000"/>
    <circle id="Ellipse 6" cx="174.500000" cy="43.618011" r="9.000000" stroke="#FFFFFF" stroke-opacity="1.000000" stroke-width="3.000000"/>
    <path id="Price: $39 - $1230" d="M27.87 69.48C27.39 69.48 27 69.12 27 68.64C27 68.17 27.39 67.8 27.87 67.8C28.34 67.8 28.73 68.17 28.73 68.64C28.73 69.12 28.35 69.48 27.87 69.48ZM14.53 78.73L13.36 78.73L13.36 68.83L16.84 68.83C18.76 68.83 20.01 70.03 20.01 71.7C20.01 73.39 18.76 74.59 16.84 74.59L14.53 74.59L14.53 78.73ZM14.53 69.88L14.53 73.54L16.81 73.54C18.07 73.54 18.79 72.81 18.79 71.71C18.79 70.63 18.07 69.88 16.81 69.88L14.53 69.88ZM34.28 78.9C32.16 78.9 30.46 77.19 30.46 75.07C30.41 72.99 32.2 71.23 34.28 71.26C35.56 71.26 36.64 71.88 37.3 72.85L36.47 73.51C35.89 72.72 35.15 72.33 34.3 72.33C32.78 72.33 31.64 73.56 31.64 75.07C31.64 76.6 32.78 77.83 34.3 77.83C35.15 77.83 35.87 77.44 36.46 76.66L37.28 77.31C36.62 78.28 35.56 78.9 34.28 78.9ZM45.64 74.56C45.64 74.85 45.61 75.13 45.55 75.43L39.77 75.43C39.91 76.87 41.02 77.83 42.46 77.83C43.28 77.83 44.03 77.5 44.69 76.84L45.37 77.62C44.6 78.42 43.6 78.9 42.44 78.9C40.27 78.9 38.57 77.23 38.57 75.09C38.57 72.97 40.22 71.26 42.31 71.26C44.2 71.26 45.64 72.63 45.64 74.56ZM48.49 73.24C47.96 73.24 47.54 72.84 47.54 72.3C47.54 71.76 47.96 71.35 48.49 71.35C49.01 71.35 49.43 71.76 49.43 72.3C49.43 72.84 49.01 73.24 48.49 73.24ZM25.2 71.37C25.36 71.37 25.54 71.38 25.74 71.43L25.74 72.45L25.3 72.45C24.07 72.45 23.01 73.24 23.01 74.59L23.01 78.73L21.85 78.73L21.85 71.43L22.93 71.43L22.93 72.46C23.46 71.76 24.31 71.37 25.2 71.37ZM28.44 78.73L27.29 78.73L27.29 71.43L28.44 71.43L28.44 78.73ZM42.28 72.31C41.06 72.31 40.07 73.15 39.82 74.41L44.45 74.41C44.44 73.11 43.49 72.31 42.28 72.31ZM48.49 78.9C47.96 78.9 47.54 78.49 47.54 77.95C47.54 77.41 47.96 77.01 48.49 77.01C49.01 77.01 49.43 77.41 49.43 77.95C49.43 78.49 49.01 78.9 48.49 78.9Z" fill="#3D3D3D" fill-opacity="1.000000" fill-rule="evenodd"/>
    <path id="Price: $39 - $1230" d="M62.19 75.73C62.19 77.13 61.2 78.12 59.7 78.36L59.7 80.19L57.93 80.19L57.93 78.33C56.78 78.07 55.83 77.37 55.28 76.3L56.64 75.28C57.23 76.2 57.98 76.65 58.91 76.65C59.69 76.65 60.21 76.35 60.21 75.76C60.21 75.28 59.85 75.04 59.06 74.73L58.04 74.35C56.64 73.83 55.8 72.96 55.8 71.74C55.8 70.53 56.66 69.6 57.93 69.3L57.93 67.5L59.7 67.5L59.7 69.27C60.69 69.48 61.44 70.05 61.94 70.99L60.59 72.01C60.11 71.31 59.57 70.99 58.86 70.99C58.25 70.99 57.78 71.23 57.78 71.76C57.78 72.19 58.11 72.42 58.79 72.7L59.91 73.09C61.43 73.65 62.19 74.52 62.19 75.73ZM102.86 75.73C102.86 77.13 101.87 78.12 100.37 78.36L100.37 80.19L98.6 80.19L98.6 78.33C97.44 78.07 96.5 77.37 95.94 76.3L97.31 75.28C97.89 76.2 98.64 76.65 99.57 76.65C100.35 76.65 100.88 76.35 100.88 75.76C100.88 75.28 100.52 75.04 99.72 74.73L98.7 74.35C97.31 73.83 96.47 72.96 96.47 71.74C96.47 70.53 97.32 69.6 98.6 69.3L98.6 67.5L100.37 67.5L100.37 69.27C101.36 69.48 102.11 70.05 102.6 70.99L101.25 72.01C100.77 71.31 100.23 70.99 99.53 70.99C98.91 70.99 98.45 71.23 98.45 71.76C98.45 72.19 98.78 72.42 99.45 72.7L100.58 73.09C102.09 73.65 102.86 74.52 102.86 75.73ZM75.32 68.65C77.27 68.65 78.96 70.15 78.96 72.21C78.96 72.76 78.86 73.24 78.63 73.68C78.42 74.11 78.08 74.65 77.6 75.31L75.14 78.73L72.74 78.73L75.03 75.55L74.96 75.55C73.32 75.6 71.64 74.11 71.69 72.19C71.64 70.2 73.41 68.62 75.32 68.65ZM115.12 75.66L113.84 77.01L117.53 77.01L117.53 78.73L110.23 78.75L110.23 78.31L113.77 74.47C114.74 73.41 115.16 72.72 115.16 71.98C115.16 71.13 114.62 70.53 113.78 70.53C112.94 70.53 112.39 71.14 112.39 72.04C112.39 72.22 112.42 72.46 112.46 72.76L110.42 72.76C110.35 72.49 110.32 72.21 110.32 71.92C110.32 70.24 111.7 68.65 113.81 68.65C115.79 68.65 117.25 70.02 117.25 71.82C117.25 72.49 117.07 73.11 116.71 73.69C116.35 74.26 115.82 74.92 115.12 75.66ZM131.32 78.91C128.71 78.91 127.39 76.63 127.39 73.71C127.39 72.19 127.72 70.98 128.39 70.05C129.07 69.12 130.04 68.65 131.32 68.65C132.59 68.65 133.57 69.12 134.23 70.05C134.9 70.98 135.23 72.19 135.23 73.71C135.23 76.63 133.91 78.91 131.32 78.91ZM69.74 73.53C70.2 74.05 70.43 74.71 70.43 75.49C70.43 77.49 68.75 78.91 66.69 78.91C65.06 78.91 63.77 78.03 63.09 76.66L64.5 75.67C65.1 76.57 65.72 77.04 66.63 77.04C67.64 77.04 68.36 76.45 68.36 75.51C68.36 74.59 67.65 74.08 66.33 74.08L65.09 74.08L65.09 73.56L67.16 70.66L63.86 70.66L63.86 68.83L70.23 68.83L70.23 69.37L68.04 72.46C68.72 72.64 69.27 73 69.74 73.53ZM103.8 70.05L107.51 68.83L108.18 68.83L108.18 78.73L106.16 78.73L106.16 71.23L104.28 71.83L103.8 70.05ZM125.18 73.53C125.65 74.05 125.87 74.71 125.87 75.49C125.87 77.49 124.19 78.91 122.14 78.91C120.5 78.91 119.21 78.03 118.54 76.66L119.95 75.67C120.55 76.57 121.16 77.04 122.08 77.04C123.08 77.04 123.8 76.45 123.8 75.51C123.8 74.59 123.1 74.08 121.78 74.08L120.53 74.08L120.53 73.56L122.6 70.66L119.3 70.66L119.3 68.83L125.68 68.83L125.68 69.37L123.49 72.46C124.16 72.64 124.72 73 125.18 73.53ZM75.32 73.86C76.23 73.86 76.95 73.14 76.95 72.19C76.95 71.25 76.23 70.51 75.32 70.51C74.42 70.51 73.68 71.23 73.68 72.19C73.68 73.14 74.42 73.86 75.32 73.86ZM131.32 77.04C132.53 77.04 133.15 75.93 133.15 73.72C133.15 71.62 132.58 70.53 131.32 70.53C130.04 70.53 129.47 71.62 129.47 73.72C129.47 75.93 130.09 77.04 131.32 77.04ZM90.73 74.77L84.25 74.77L84.25 73.08L90.73 73.08L90.73 74.77Z" fill="#46A358" fill-opacity="1.000000" fill-rule="evenodd"/>
    <rect id="Rectangle 22" x="12.000000" y="98.118011" rx="6.000000" width="90.000000" height="35.000000" fill="#46A358" fill-opacity="1.000000"/>
    <path id="Filter" d="M48.7 111.57C47.93 111.57 47.33 110.99 47.33 110.24C47.33 109.47 47.93 108.9 48.7 108.9C49.47 108.9 50.09 109.47 50.09 110.24C50.09 110.99 49.47 111.57 48.7 111.57ZM54.09 121.04L51.93 121.04L51.93 109.04L54.09 109.04L54.09 121.04ZM41.37 121.04L39.21 121.04L39.21 110.48L46.16 110.48L46.16 112.43L41.37 112.43L41.37 115.07L45.29 115.07L45.29 117.03L41.37 117.03L41.37 121.04ZM60.29 119.3C60.42 119.3 60.75 119.28 61.31 119.23L61.31 121.04C60.8 121.17 60.3 121.23 59.82 121.23C57.82 121.23 56.66 120.24 56.66 118.26L56.66 114.95L55.41 114.95L55.41 113.12L56.66 113.12L56.66 111.12L58.82 111.12L58.82 113.12L61.06 113.12L61.06 114.95L58.82 114.95L58.82 118.07C58.82 118.96 59.26 119.3 60.29 119.3ZM70.15 116.63C70.15 117.01 70.1 117.41 70 117.81L64.45 117.81C64.71 118.82 65.52 119.38 66.68 119.38C67.46 119.38 68.2 119.11 68.88 118.58L69.78 120.05C68.84 120.83 67.78 121.23 66.61 121.23C64.16 121.28 62.23 119.38 62.28 117.09C62.23 114.8 64.13 112.9 66.42 112.95C68.61 112.95 70.15 114.56 70.15 116.63ZM75.99 113.03C76.26 113.03 76.49 113.06 76.7 113.12L76.7 115.03L76.12 115.03C74.82 115.03 73.99 115.73 73.99 117.09L73.99 121.04L71.83 121.04L71.83 113.12L73.82 113.12L73.82 114.07C74.34 113.41 75.11 113.03 75.99 113.03ZM49.79 121.04L47.63 121.04L47.63 113.12L49.79 113.12L49.79 121.04ZM66.34 114.69C65.43 114.69 64.69 115.31 64.45 116.29L68.05 116.29C68.04 115.31 67.28 114.69 66.34 114.69Z" fill="#FFFFFF" fill-opacity="1.000000" fill-rule="evenodd"/>
</svg>
