<svg width="68.000000" height="87.000000" viewBox="0 0 68 87" fill="none" xmlns="http://www.w3.org/2000/svg" xmlns:xlink="http://www.w3.org/1999/xlink">
    <defs>
        <clipPath id="clip5_1646">
            <rect id="Frame" rx="-0.500000" width="67.000000" height="48.000000" transform="translate(0.500000 38.500000)" fill="white" fill-opacity="0"/>
        </clipPath>
        <clipPath id="clip5_1676">
            <rect id="Frame" rx="-0.500000" width="34.000000" height="38.000000" transform="translate(16.500000 0.500000)" fill="white" fill-opacity="0"/>
        </clipPath>
    </defs>
    <rect id="Frame" rx="-0.500000" width="67.000000" height="48.000000" transform="translate(0.500000 38.500000)" fill="#FFFFFF" fill-opacity="0"/>
    <g clip-path="url(#clip5_1646)">
        <path id="Vector" d="M7.24 40.77C24.02 39.02 40.93 41.71 57.66 39.29C58.45 39.17 58.11 37.99 57.34 38.1C40.72 40.51 23.9 37.8 7.24 39.54C6.46 39.62 6.45 40.85 7.24 40.77Z" fill="#727272" fill-opacity="1.000000" fill-rule="nonzero"/>
        <path id="Vector" d="M7.08 39.57C5.44 40.08 5.65 42.21 6.52 43.34C7.94 45.19 11.14 45.23 13.22 45.03C14.01 44.96 14.01 43.73 13.22 43.8C11.87 43.93 10.47 43.92 9.16 43.53C8.48 43.33 7.76 43.05 7.37 42.41C7.17 42.08 6.78 40.95 7.41 40.76C8.17 40.52 7.84 39.33 7.08 39.57Z" fill="#727272" fill-opacity="1.000000" fill-rule="nonzero"/>
        <path id="Vector" d="M54.78 39.67C55.64 39.62 56.48 39.47 57.35 39.35C58.72 39.17 59.42 39.54 59.66 40.97C59.86 42.16 59.1 42.51 58.04 42.85C57.54 43.01 57.01 43.11 56.5 43.21C55.11 43.48 53.72 43.61 52.31 43.66C51.52 43.69 51.51 44.92 52.31 44.89C54.72 44.81 61.47 44.72 61.21 40.93C61.15 39.98 60.23 38.67 59.37 38.25C58.08 37.61 56.09 38.36 54.77 38.44C53.99 38.49 53.98 39.72 54.78 39.67Z" fill="#727272" fill-opacity="1.000000" fill-rule="nonzero"/>
        <path id="Vector" d="M9.05 44.77C8.88 47.37 5.92 48.84 4.35 50.62C3.11 52.03 2.14 53.65 1.44 55.37C-0.07 59.07 -0.36 63.21 0.41 67.1C1.99 75.09 8.05 81.68 15.63 84.51C16.37 84.79 16.69 83.6 15.96 83.33C8.09 80.39 1.98 73.02 1.3 64.57C0.97 60.56 1.82 56.38 4.07 53C5.94 50.2 10.05 48.41 10.28 44.77C10.33 43.98 9.1 43.98 9.05 44.77Z" fill="#727272" fill-opacity="1.000000" fill-rule="nonzero"/>
        <path id="Vector" d="M55.82 44.24C55.82 47.48 58.18 49.5 60.57 51.31C62.63 52.86 64.23 54.36 65.25 56.79C66.13 58.9 66.62 61.18 66.73 63.46C67.14 71.85 62.24 79.64 54.72 83.31C54 83.65 54.62 84.71 55.34 84.37C62.33 80.96 67.25 74.05 67.91 66.3C68.25 62.38 67.56 58.06 65.56 54.63C63.36 50.84 57.05 49.1 57.05 44.24C57.05 43.45 55.82 43.45 55.82 44.24Z" fill="#727272" fill-opacity="1.000000" fill-rule="nonzero"/>
        <path id="Vector" d="M15.26 83.61C14.46 85.38 15.9 86.9 17.67 86.98C19.6 87.08 21.64 86.63 23.57 86.55C25.81 86.45 28.06 86.45 30.3 86.48C38.67 86.61 47.03 87.24 55.36 86.11C55.64 86.07 55.79 85.76 55.81 85.52C55.88 84.83 55.82 84.32 55.62 83.67C55.39 82.92 54.2 83.24 54.43 84C54.64 84.5 54.69 85 54.58 85.52C54.73 85.32 54.88 85.12 55.03 84.92C48.54 85.8 41.98 85.58 35.45 85.38C32.28 85.28 29.11 85.19 25.94 85.24C24.49 85.27 23.05 85.32 21.6 85.42C20.81 85.48 20.02 85.55 19.24 85.63C18.66 85.68 15.44 86.18 16.32 84.22C16.65 83.51 15.59 82.89 15.26 83.61Z" fill="#727272" fill-opacity="1.000000" fill-rule="nonzero"/>
        <path id="Vector" d="M7.08 51.22C2.05 57.37 1.66 65.97 6.17 72.52C6.39 72.84 6.93 72.53 6.7 72.21C2.36 65.9 2.66 57.6 7.52 51.65C7.76 51.35 7.33 50.91 7.08 51.22Z" fill="#727272" fill-opacity="1.000000" fill-rule="nonzero"/>
        <path id="Vector" d="M7.41 74.8C7.81 75.38 8.27 75.92 8.79 76.4C9.07 76.67 9.51 76.25 9.22 75.97C8.75 75.52 8.32 75.03 7.94 74.49C7.72 74.17 7.18 74.47 7.41 74.8Z" fill="#727272" fill-opacity="1.000000" fill-rule="nonzero"/>
        <path id="Vector" d="M10.86 78.33C11.26 78.33 11.26 77.72 10.86 77.72C10.46 77.72 10.46 78.33 10.86 78.33Z" fill="#727272" fill-opacity="1.000000" fill-rule="nonzero"/>
        <path id="Vector" d="M54.62 44.28C54.31 45.46 54.04 46.64 54.5 47.82C54.93 48.92 55.81 49.9 56.55 50.81C58.34 52.97 61.99 55.15 62.17 58.17C62.19 58.56 62.8 58.57 62.78 58.17C62.66 55.91 60.98 54.47 59.45 53C58.45 52.05 57.52 51.05 56.67 49.98C56.09 49.25 55.44 48.49 55.11 47.61C54.7 46.55 54.93 45.51 55.22 44.45C55.32 44.06 54.72 43.9 54.62 44.28Z" fill="#727272" fill-opacity="1.000000" fill-rule="nonzero"/>
        <path id="Vector" d="M62.43 59.59C62.52 60.38 62.61 61.17 62.69 61.95C62.73 62.34 63.35 62.35 63.31 61.95C63.22 61.17 63.14 60.38 63.05 59.59C63.01 59.2 62.39 59.2 62.43 59.59Z" fill="#727272" fill-opacity="1.000000" fill-rule="nonzero"/>
        <path id="Vector" d="M62.49 63.57C62.54 63.8 62.5 64.02 62.41 64.23C62.35 64.38 62.48 64.57 62.63 64.61C62.8 64.66 62.94 64.54 63 64.39C63.13 64.07 63.15 63.74 63.08 63.41C63.01 63.02 62.42 63.18 62.49 63.57Z" fill="#727272" fill-opacity="1.000000" fill-rule="nonzero"/>
        <path id="Vector" d="M35.74 59.08C37.21 56.29 39.98 54.47 43.2 54.63C47.04 54.82 51.07 58.14 48.38 62.06C46.81 64.36 43.98 65.85 41.89 67.66C39.58 69.67 37.46 71.88 35.5 74.25C35 74.86 35.87 75.73 36.37 75.12C39.35 71.51 42.72 68.46 46.43 65.61C48.9 63.7 51.63 60.81 50.13 57.45C48.89 54.68 45.46 53.31 42.57 53.39C39.16 53.49 36.24 55.49 34.67 58.46C34.3 59.16 35.37 59.78 35.74 59.08Z" fill="#727272" fill-opacity="1.000000" fill-rule="nonzero"/>
        <path id="Vector" d="M35.45 58.12C32.81 55.17 29.52 52.13 25.25 52.35C22.08 52.51 19.35 54.9 18.89 58.05C18.33 61.89 21.21 65.26 24.02 67.48C27.46 70.21 32.66 71.16 35.24 74.86C35.69 75.51 36.76 74.89 36.31 74.24C34.7 71.93 32.36 70.75 29.87 69.55C26.72 68.03 23.6 66.15 21.57 63.22C19.3 59.95 19.68 54.96 24.07 53.77C28.37 52.6 31.99 56.1 34.57 58.99C35.1 59.59 35.97 58.71 35.45 58.12Z" fill="#727272" fill-opacity="1.000000" fill-rule="nonzero"/>
    </g>
    <rect id="Frame" rx="-0.500000" width="34.000000" height="38.000000" transform="translate(16.500000 0.500000)" fill="#FFFFFF" fill-opacity="0"/>
    <g clip-path="url(#clip5_1676)">
        <path id="Vector" d="M31.47 12.62C30.28 14.78 28.46 16.5 26.14 17.39C25.23 17.75 24.03 17.73 24.15 16.48C24.22 15.71 25.06 15.03 25.67 14.67C26.71 14.05 28.04 13.85 29.15 13.37C29.87 13.05 29.25 12 28.53 12.31C26.54 13.17 24.36 13.37 23.23 15.46C22.62 16.58 22.42 18.13 23.79 18.77C25.26 19.46 27.3 18.35 28.52 17.56C30.22 16.48 31.56 15 32.53 13.24C32.91 12.55 31.85 11.93 31.47 12.62Z" fill="#46A358" fill-opacity="1.000000" fill-rule="nonzero"/>
        <path id="Vector" d="M28.89 12.11C27.39 12.28 25.91 12.29 24.42 12.01C23.88 11.91 23.34 11.77 22.82 11.6C22.37 11.47 21.94 11.31 21.52 11.12C20.89 10.33 20.95 9.89 21.71 9.79C23.94 8.09 27.43 9.88 29.62 10.7C30.36 10.98 30.68 9.8 29.94 9.52C28.04 8.8 25.95 7.72 23.86 7.95C22.66 8.08 19.89 8.6 19.57 10.1C18.83 13.56 27.1 13.54 28.89 13.34C29.67 13.25 29.68 12.03 28.89 12.11Z" fill="#46A358" fill-opacity="1.000000" fill-rule="nonzero"/>
        <path id="Vector" d="M30.35 9.55C28.48 8.07 26.81 5.78 26.9 3.3C26.95 2.19 27.65 1.72 28.68 2.22C29.24 2.49 29.63 3.19 29.94 3.72C30.66 4.95 30.96 6.36 31.22 7.74C31.37 8.51 32.56 8.18 32.41 7.41C32.01 5.35 31.45 3.2 29.91 1.66C29 0.75 27.49 -0.29 26.42 0.93C23.92 3.79 27.19 8.61 29.48 10.41C30.09 10.89 30.97 10.03 30.35 9.55Z" fill="#46A358" fill-opacity="1.000000" fill-rule="nonzero"/>
        <path id="Vector" d="M32.38 7.75C32.65 5.79 33.52 2.05 35.79 1.41C37.91 0.82 37.7 4.2 37.11 5.32C36.51 6.44 35.34 7.5 34.49 8.44C33.96 9.02 34.83 9.89 35.36 9.3C36.58 7.95 38.41 6.4 38.67 4.49C38.88 3.02 38.77 0.79 37.13 0.13C35.63 -0.46 34.15 0.89 33.3 1.96C32.04 3.52 31.46 5.46 31.19 7.42C31.08 8.2 32.27 8.53 32.38 7.75Z" fill="#46A358" fill-opacity="1.000000" fill-rule="nonzero"/>
        <path id="Vector" d="M35.45 9.46C36.88 8.27 39.55 7.44 41.3 8.51C43.57 9.91 40.36 10.74 39.3 10.81C38.16 10.89 37.02 10.82 35.9 10.69C35.11 10.6 35.12 11.82 35.9 11.91C37.74 12.13 40.23 12.4 41.94 11.49C43.01 10.93 43.78 9.57 43.12 8.42C42.39 7.14 40.33 6.83 38.99 6.87C37.33 6.92 35.84 7.55 34.58 8.6C33.97 9.1 34.84 9.97 35.45 9.46Z" fill="#46A358" fill-opacity="1.000000" fill-rule="nonzero"/>
        <path id="Vector" d="M35.58 11.87C36.85 12.34 38.11 13.04 38.84 14.22C39.74 15.71 39.76 18.44 37.13 17.93C34.82 17.48 33.14 15.04 32.67 12.93C32.5 12.16 31.31 12.48 31.48 13.25C31.9 15.14 32.95 16.8 34.52 17.95C35.75 18.86 37.92 19.95 39.37 18.92C40.87 17.86 40.87 15.66 40.19 14.15C39.39 12.38 37.7 11.34 35.92 10.69C35.16 10.42 34.84 11.6 35.58 11.87Z" fill="#46A358" fill-opacity="1.000000" fill-rule="nonzero"/>
        <path id="Vector" d="M23.1 15.24C19.5 17.4 16.84 19.79 16.21 24.11C15.52 28.79 16.62 33.69 17.62 38.25C17.79 39.02 18.98 38.7 18.81 37.93C17.92 33.89 17.02 29.71 17.29 25.55C17.59 21.02 19.96 18.54 23.72 16.3C24.4 15.89 23.78 14.83 23.1 15.24Z" fill="#46A358" fill-opacity="1.000000" fill-rule="nonzero"/>
        <path id="Vector" d="M39 13.86C44.04 14.25 47.61 18.26 48.96 22.86C50.44 27.86 49.61 33.13 48.81 38.17C48.69 38.94 49.88 39.27 50 38.5C50.94 32.58 51.88 26.3 49.46 20.6C47.62 16.29 43.81 13.01 39 12.64C38.21 12.58 38.21 13.8 39 13.86Z" fill="#46A358" fill-opacity="1.000000" fill-rule="nonzero"/>
        <path id="Vector" d="M24.32 17.78C18.29 22.13 20.25 31.95 21.47 38.06C21.62 38.83 22.81 38.51 22.66 37.74C22.02 34.54 21.43 31.3 21.49 28.03C21.55 24.85 22.15 20.84 24.94 18.83C25.58 18.37 24.97 17.31 24.32 17.78Z" fill="#46A358" fill-opacity="1.000000" fill-rule="nonzero"/>
        <path id="Vector" d="M31.09 13.82C28.85 17.24 27.4 21.07 26.87 25.12C26.6 27.25 26.58 29.4 26.83 31.53C27.11 33.85 27.86 36.09 28.14 38.41C28.23 39.18 29.47 39.19 29.37 38.41C28.89 34.35 27.64 30.62 27.97 26.47C28.31 22.16 29.79 18.06 32.16 14.44C32.59 13.78 31.52 13.17 31.09 13.82Z" fill="#46A358" fill-opacity="1.000000" fill-rule="nonzero"/>
        <path id="Vector" d="M34.1 17.6C35.94 20.61 36.33 24.02 36.65 27.45C36.98 31.03 37.25 34.61 37.49 38.2C37.53 38.98 38.77 38.98 38.72 38.2C38.46 34.14 38.17 30.08 37.75 26.04C37.42 22.86 36.86 19.75 35.17 16.98C34.76 16.31 33.69 16.93 34.1 17.6Z" fill="#46A358" fill-opacity="1.000000" fill-rule="nonzero"/>
        <path id="Vector" d="M39.72 18.17C44.31 23.9 44.47 31.22 44.3 38.2C44.29 38.99 45.52 38.99 45.54 38.2C45.71 30.84 45.41 23.32 40.59 17.31C40.1 16.69 39.23 17.57 39.72 18.17Z" fill="#46A358" fill-opacity="1.000000" fill-rule="nonzero"/>
        <path id="Vector" d="M31.95 19.67C31.88 19.94 31.81 20.21 31.74 20.48C31.65 20.87 32.24 21.03 32.34 20.64C32.41 20.37 32.47 20.1 32.54 19.83C32.64 19.45 32.05 19.29 31.95 19.67Z" fill="#46A358" fill-opacity="1.000000" fill-rule="nonzero"/>
        <path id="Vector" d="M33.28 21.79C33.28 22.1 33.28 22.4 33.28 22.71C33.28 23.1 33.9 23.1 33.9 22.71C33.9 22.4 33.9 22.1 33.9 21.79C33.9 21.4 33.28 21.4 33.28 21.79Z" fill="#46A358" fill-opacity="1.000000" fill-rule="nonzero"/>
        <path id="Vector" d="M30.3 23.73C30.27 24.17 30.23 24.61 30.2 25.05C30.17 25.44 30.79 25.44 30.82 25.05C30.85 24.61 30.89 24.17 30.92 23.73C30.95 23.34 30.33 23.34 30.3 23.73Z" fill="#46A358" fill-opacity="1.000000" fill-rule="nonzero"/>
        <path id="Vector" d="M34.31 25.87C34.31 26.28 34.31 26.68 34.31 27.09C34.31 27.49 34.93 27.49 34.93 27.09C34.93 26.68 34.93 26.28 34.93 25.87C34.93 25.47 34.31 25.47 34.31 25.87Z" fill="#46A358" fill-opacity="1.000000" fill-rule="nonzero"/>
        <path id="Vector" d="M31.94 28.11C31.94 28.55 31.94 29 31.94 29.44C31.94 29.83 32.56 29.83 32.56 29.44C32.56 29 32.56 28.55 32.56 28.11C32.56 27.72 31.94 27.72 31.94 28.11Z" fill="#46A358" fill-opacity="1.000000" fill-rule="nonzero"/>
        <path id="Vector" d="M30.61 32.6C30.61 33.21 30.61 33.82 30.61 34.43C30.61 34.83 31.22 34.83 31.22 34.43C31.22 33.82 31.22 33.21 31.22 32.6C31.22 32.2 30.61 32.2 30.61 32.6Z" fill="#46A358" fill-opacity="1.000000" fill-rule="nonzero"/>
        <path id="Vector" d="M28.78 28.6C28.85 29 28.92 29.41 28.99 29.82C29.06 30.21 29.65 30.04 29.59 29.66C29.52 29.25 29.44 28.84 29.37 28.43C29.3 28.05 28.71 28.21 28.78 28.6Z" fill="#46A358" fill-opacity="1.000000" fill-rule="nonzero"/>
        <path id="Vector" d="M33.5 34.64C33.53 35.04 33.56 35.45 33.6 35.86C33.63 36.25 34.25 36.25 34.21 35.86C34.18 35.45 34.15 35.04 34.11 34.64C34.08 34.24 33.46 34.24 33.5 34.64Z" fill="#46A358" fill-opacity="1.000000" fill-rule="nonzero"/>
        <path id="Vector" d="M35.34 30.05C35.38 30.46 35.41 30.86 35.44 31.27C35.48 31.66 36.09 31.66 36.06 31.27C36.03 30.86 35.99 30.46 35.96 30.05C35.93 29.66 35.31 29.65 35.34 30.05Z" fill="#46A358" fill-opacity="1.000000" fill-rule="nonzero"/>
        <path id="Vector" d="M42.43 16.4C42.9 16.81 43.38 17.22 43.86 17.63C44.16 17.88 44.59 17.45 44.29 17.2C43.82 16.78 43.34 16.37 42.86 15.96C42.57 15.71 42.13 16.14 42.43 16.4Z" fill="#46A358" fill-opacity="1.000000" fill-rule="nonzero"/>
        <path id="Vector" d="M42.69 19.8C42.95 20.28 43.22 20.76 43.49 21.24C43.68 21.58 44.22 21.27 44.03 20.93C43.76 20.45 43.49 19.97 43.22 19.49C43.02 19.15 42.49 19.46 42.69 19.8Z" fill="#46A358" fill-opacity="1.000000" fill-rule="nonzero"/>
        <path id="Vector" d="M45.16 20C45.46 20.41 45.77 20.82 46.07 21.23C46.3 21.55 46.84 21.24 46.61 20.92C46.3 20.51 46 20.1 45.69 19.69C45.46 19.38 44.92 19.68 45.16 20Z" fill="#46A358" fill-opacity="1.000000" fill-rule="nonzero"/>
        <path id="Vector" d="M46.68 25.33C46.78 26.05 46.89 26.76 46.99 27.48C47.05 27.86 47.64 27.7 47.59 27.31C47.49 26.6 47.38 25.88 47.28 25.17C47.21 24.78 46.62 24.95 46.68 25.33Z" fill="#46A358" fill-opacity="1.000000" fill-rule="nonzero"/>
        <path id="Vector" d="M44.61 23.5C44.71 23.84 44.81 24.18 44.91 24.52C45.03 24.9 45.62 24.74 45.51 24.36C45.41 24.02 45.31 23.68 45.2 23.34C45.09 22.97 44.49 23.12 44.61 23.5Z" fill="#46A358" fill-opacity="1.000000" fill-rule="nonzero"/>
        <path id="Vector" d="M47.88 31.17C47.92 31.65 47.91 32.14 47.84 32.62C47.77 33 48.37 33.17 48.43 32.78C48.52 32.25 48.55 31.71 48.5 31.17C48.46 30.78 47.84 30.78 47.88 31.17Z" fill="#46A358" fill-opacity="1.000000" fill-rule="nonzero"/>
        <path id="Vector" d="M46.45 33.11C46.45 33.48 46.45 33.85 46.45 34.23C46.45 34.62 47.06 34.62 47.06 34.23C47.06 33.85 47.06 33.48 47.06 33.11C47.06 32.71 46.45 32.71 46.45 33.11Z" fill="#46A358" fill-opacity="1.000000" fill-rule="nonzero"/>
        <path id="Vector" d="M47.08 22.89C47.25 23.3 47.42 23.7 47.59 24.11C47.66 24.27 47.8 24.37 47.97 24.32C48.12 24.29 48.25 24.1 48.19 23.95C48.02 23.54 47.84 23.13 47.68 22.72C47.61 22.57 47.47 22.46 47.3 22.51C47.15 22.55 47.02 22.74 47.08 22.89Z" fill="#46A358" fill-opacity="1.000000" fill-rule="nonzero"/>
        <path id="Vector" d="M45.93 29.95C45.93 30.18 45.93 30.42 45.93 30.66C45.93 31.06 46.55 31.06 46.55 30.66C46.55 30.42 46.55 30.18 46.55 29.95C46.55 29.55 45.93 29.55 45.93 29.95Z" fill="#46A358" fill-opacity="1.000000" fill-rule="nonzero"/>
        <path id="Vector" d="M47.17 36.78C47.15 37.07 47.08 37.34 46.97 37.61C46.91 37.77 47.04 37.95 47.19 37.99C47.36 38.04 47.5 37.93 47.56 37.78C47.7 37.45 47.76 37.12 47.78 36.78C47.81 36.38 47.19 36.39 47.17 36.78Z" fill="#46A358" fill-opacity="1.000000" fill-rule="nonzero"/>
        <path id="Vector" d="M21.29 18.88C21.08 19.18 20.87 19.48 20.65 19.78C20.43 20.11 20.96 20.42 21.19 20.09C21.4 19.79 21.61 19.49 21.82 19.19C22.04 18.86 21.51 18.56 21.29 18.88Z" fill="#46A358" fill-opacity="1.000000" fill-rule="nonzero"/>
        <path id="Vector" d="M19.52 23.34C19.45 23.71 19.37 24.08 19.29 24.46C19.22 24.84 19.81 25.01 19.89 24.62C19.97 24.25 20.04 23.88 20.12 23.5C20.2 23.12 19.6 22.96 19.52 23.34Z" fill="#46A358" fill-opacity="1.000000" fill-rule="nonzero"/>
        <path id="Vector" d="M19.33 21.12C19 21.55 18.76 22.02 18.59 22.53C18.47 22.9 19.07 23.06 19.19 22.69C19.34 22.23 19.57 21.82 19.86 21.43C20.1 21.11 19.56 20.81 19.33 21.12Z" fill="#46A358" fill-opacity="1.000000" fill-rule="nonzero"/>
        <path id="Vector" d="M18.07 25.18C18 25.68 17.92 26.19 17.85 26.7C17.79 27.08 18.39 27.25 18.44 26.86C18.52 26.35 18.59 25.85 18.67 25.34C18.73 24.95 18.13 24.78 18.07 25.18Z" fill="#46A358" fill-opacity="1.000000" fill-rule="nonzero"/>
        <path id="Vector" d="M18.69 28.11C18.64 28.62 18.67 29.12 18.77 29.62C18.84 30.01 19.44 29.85 19.36 29.46C19.28 29.01 19.26 28.56 19.31 28.11C19.34 27.72 18.73 27.72 18.69 28.11Z" fill="#46A358" fill-opacity="1.000000" fill-rule="nonzero"/>
        <path id="Vector" d="M19.2 31.99C19.23 32.29 19.27 32.6 19.3 32.9C19.31 33.07 19.43 33.21 19.61 33.21C19.76 33.21 19.94 33.07 19.92 32.9C19.88 32.6 19.85 32.29 19.81 31.99C19.8 31.82 19.69 31.68 19.5 31.68C19.35 31.68 19.18 31.82 19.2 31.99Z" fill="#46A358" fill-opacity="1.000000" fill-rule="nonzero"/>
        <path id="Vector" d="M18.2 34.29C18.43 34.67 18.61 35.08 18.71 35.52C18.81 35.91 19.4 35.75 19.31 35.36C19.19 34.87 18.99 34.41 18.73 33.98C18.52 33.64 17.99 33.95 18.2 34.29Z" fill="#46A358" fill-opacity="1.000000" fill-rule="nonzero"/>
        <path id="Vector" d="M19.51 36.86C19.58 37.03 19.65 37.2 19.72 37.37C19.78 37.52 19.92 37.63 20.1 37.58C20.24 37.54 20.38 37.36 20.31 37.21C20.24 37.03 20.17 36.87 20.1 36.7C20.04 36.54 19.9 36.43 19.73 36.48C19.58 36.52 19.45 36.7 19.51 36.86Z" fill="#46A358" fill-opacity="1.000000" fill-rule="nonzero"/>
    </g>
</svg>
