<svg width="83.000000" height="85.000000" viewBox="0 0 83 85" fill="none" xmlns="http://www.w3.org/2000/svg" xmlns:xlink="http://www.w3.org/1999/xlink">
    <desc>
        Created with Pixso.
    </desc>
    <defs>
        <clipPath id="clip5_1761">
            <rect id="Frame" rx="-0.500000" width="43.000000" height="48.000000" transform="translate(24.500000 0.500000)" fill="white" fill-opacity="0"/>
        </clipPath>
        <clipPath id="clip5_1980">
            <rect id="Frame" rx="-0.500000" width="82.000000" height="39.000000" transform="translate(0.500000 45.500000)" fill="white" fill-opacity="0"/>
        </clipPath>
    </defs>
    <rect id="Frame" rx="-0.500000" width="43.000000" height="48.000000" transform="translate(24.500000 0.500000)" fill="#FFFFFF" fill-opacity="0"/>
    <g clip-path="url(#clip5_1761)">
        <path id="Vector" d="M44.3 44.02C44.32 44.51 44.45 44.96 44.71 45.38C44.93 45.74 45.5 45.39 45.28 45.04C45.08 44.72 44.97 44.38 44.96 44.01C44.94 43.59 44.28 43.6 44.3 44.02Z" fill="#46A358" fill-opacity="1.000000" fill-rule="nonzero"/>
        <path id="Vector" d="M52.8 43.98C52.77 44.16 52.73 44.34 52.7 44.53C52.67 44.7 52.76 44.88 52.94 44.92C53.11 44.97 53.31 44.86 53.34 44.69C53.38 44.51 53.41 44.33 53.45 44.14C53.48 43.97 53.39 43.79 53.21 43.74C53.04 43.7 52.84 43.81 52.8 43.98Z" fill="#46A358" fill-opacity="1.000000" fill-rule="nonzero"/>
        <path id="Vector" d="M57.34 44.63C57.76 44.62 57.75 43.97 57.32 43.98C56.89 43.99 56.91 44.64 57.34 44.63Z" fill="#46A358" fill-opacity="1.000000" fill-rule="nonzero"/>
        <path id="Vector" d="M32.48 45.79C32.9 45.78 32.89 45.12 32.46 45.13C32.04 45.14 32.05 45.8 32.48 45.79Z" fill="#46A358" fill-opacity="1.000000" fill-rule="nonzero"/>
        <path id="Vector" d="M44.58 4.38C42.03 11.83 40.64 19.63 40.48 27.5C40.41 31.46 40.64 35.42 41.19 39.34C41.44 41.14 41.76 42.94 42.14 44.73C42.44 46.12 42.6 47.71 43.64 48.78C44.09 49.23 44.78 48.52 44.33 48.07C43.2 46.92 43.09 44.49 42.8 42.99C42.43 41.09 42.14 39.18 41.92 37.26C41.52 33.62 41.38 29.95 41.51 26.3C41.77 18.91 43.15 11.62 45.55 4.62C45.75 4.03 44.79 3.79 44.58 4.38Z" fill="#46A358" fill-opacity="1.000000" fill-rule="nonzero"/>
        <path id="Vector" d="M48.44 4.52C49.77 11.96 49.81 19.57 50.07 27.1C50.2 30.64 50.41 34.19 50.34 37.73C50.27 41.41 49.54 44.87 48.56 48.4C48.4 49.01 49.36 49.25 49.53 48.64C50.44 45.34 51.17 42.07 51.31 38.63C51.47 34.79 51.21 30.92 51.07 27.08C50.8 19.46 50.74 11.77 49.39 4.24C49.28 3.62 48.32 3.9 48.44 4.52Z" fill="#46A358" fill-opacity="1.000000" fill-rule="nonzero"/>
        <path id="Vector" d="M55.62 17.31C56.08 27.49 56.49 37.8 53.97 47.77C53.82 48.39 54.78 48.63 54.94 48.02C57.47 37.96 57.08 27.56 56.62 17.29C56.59 16.65 55.59 16.67 55.62 17.31Z" fill="#46A358" fill-opacity="1.000000" fill-rule="nonzero"/>
        <path id="Vector" d="M52.82 17.46C51.41 19.08 50.47 20.97 50.06 23.08C49.94 23.7 50.9 23.94 51.02 23.32C51.4 21.38 52.23 19.64 53.53 18.14C53.95 17.66 53.23 16.97 52.82 17.46Z" fill="#46A358" fill-opacity="1.000000" fill-rule="nonzero"/>
        <path id="Vector" d="M62.6 23.71C62.58 31.09 61.58 38.39 59.62 45.51C59.45 46.12 60.41 46.36 60.58 45.75C62.56 38.55 63.57 31.15 63.59 23.69C63.59 23.06 62.6 23.08 62.6 23.71Z" fill="#46A358" fill-opacity="1.000000" fill-rule="nonzero"/>
        <path id="Vector" d="M60.71 21.52C58.15 24.46 56.88 28.08 55.98 31.81C55.83 32.42 56.79 32.66 56.94 32.05C57.81 28.5 58.98 25.01 61.43 22.2C61.85 21.72 61.13 21.04 60.71 21.52Z" fill="#46A358" fill-opacity="1.000000" fill-rule="nonzero"/>
        <path id="Vector" d="M36.75 10.41C38.52 14.53 39.8 18.79 40.6 23.19C40.71 23.82 41.66 23.53 41.55 22.91C40.75 18.51 39.47 14.25 37.7 10.13C37.45 9.56 36.5 9.83 36.75 10.41Z" fill="#46A358" fill-opacity="1.000000" fill-rule="nonzero"/>
        <path id="Vector" d="M34.91 10.77C34.39 17.01 33.88 23.34 34.93 29.56C36.04 36.05 38.74 42.39 40.82 48.62C41.02 49.22 41.98 48.94 41.78 48.34C39.76 42.29 37.16 36.15 35.99 29.88C34.82 23.57 35.37 17.1 35.9 10.75C35.96 10.12 34.96 10.14 34.91 10.77Z" fill="#46A358" fill-opacity="1.000000" fill-rule="nonzero"/>
        <path id="Vector" d="M28.59 25.86C31.9 28.91 34.59 32.47 36.6 36.48C36.89 37.05 37.73 36.53 37.45 35.97C35.4 31.89 32.65 28.25 29.28 25.15C28.81 24.72 28.13 25.43 28.59 25.86Z" fill="#46A358" fill-opacity="1.000000" fill-rule="nonzero"/>
        <path id="Vector" d="M26.32 27.12C28.88 34.69 32.34 41.93 36.62 48.7C36.96 49.24 37.81 48.73 37.47 48.19C33.23 41.49 29.81 34.33 27.27 26.84C27.07 26.24 26.12 26.52 26.32 27.12Z" fill="#46A358" fill-opacity="1.000000" fill-rule="nonzero"/>
        <path id="Vector" d="M32.06 46.76C30.6 44.17 28.46 42.02 25.79 40.66C25.25 40.38 24.73 40.45 25.78 40.34C26.16 40.31 26.56 40.29 26.94 40.3C28.19 40.31 29.33 40.53 30.4 41.2C31.65 41.98 32.75 43.1 33.86 44.05C34.35 44.46 35.04 43.76 34.55 43.34C33.14 42.13 31.73 40.62 30 39.87C29.03 39.45 27.98 39.32 26.92 39.32C26.26 39.32 24.87 39.19 24.31 39.76C23.21 40.85 25.31 41.49 25.96 41.88C28.19 43.18 29.96 45.05 31.22 47.28C31.53 47.82 32.37 47.31 32.06 46.76Z" fill="#46A358" fill-opacity="1.000000" fill-rule="nonzero"/>
        <path id="Vector" d="M62.28 38.79C63.25 36.65 65.5 35.98 67.64 35.54C67.96 35.47 68.08 35.06 67.93 34.81C66.76 32.99 64.64 32.8 62.65 32.98C62.02 33.04 62.03 34.02 62.67 33.96C64.28 33.82 66.11 33.81 67.08 35.32C67.17 35.08 67.27 34.84 67.36 34.6C64.97 35.09 62.48 35.94 61.41 38.31C61.15 38.88 62.01 39.36 62.28 38.79Z" fill="#46A358" fill-opacity="1.000000" fill-rule="nonzero"/>
        <path id="Vector" d="M28.43 24.91C27.99 25.48 27.5 26.19 26.78 26.42C26.06 26.64 25.3 26.32 25.35 25.47C25.39 24.8 25.97 24.31 26.54 24.03C27.19 23.71 28.99 23.55 28.51 24.8C28.29 25.39 29.25 25.62 29.48 25.04C29.94 23.84 28.83 22.79 27.66 22.77C26.43 22.74 24.99 23.55 24.53 24.71C24.1 25.78 24.55 27.11 25.76 27.42C27.23 27.79 28.34 26.63 29.14 25.59C29.53 25.09 28.81 24.41 28.43 24.91Z" fill="#46A358" fill-opacity="1.000000" fill-rule="nonzero"/>
        <path id="Vector" d="M36.99 9.68C36.37 9.79 35.48 10.19 34.86 9.86C34.24 9.53 34.35 8.71 34.71 8.24C35.08 7.74 35.67 7.56 36.27 7.73C36.75 7.86 38.26 9.11 37.21 9.54C36.62 9.78 36.9 10.73 37.49 10.48C38.73 9.97 38.69 8.55 37.89 7.64C37.09 6.72 35.65 6.37 34.57 7.04C33.63 7.63 33.11 8.91 33.62 9.94C34.34 11.4 36.03 10.85 37.28 10.62C37.9 10.5 37.61 9.56 36.99 9.68Z" fill="#46A358" fill-opacity="1.000000" fill-rule="nonzero"/>
        <path id="Vector" d="M48.79 3.69C47.93 3.91 46.92 4.17 46.04 3.95C44.79 3.66 44.74 2.25 45.62 1.51C46.32 0.93 47.4 0.86 48.25 1.12C48.78 1.28 49.41 1.62 49.56 2.21C49.7 2.75 49.43 3.29 48.87 3.43C48.25 3.58 48.54 4.52 49.16 4.37C50.64 4.01 50.96 2.19 50.05 1.11C49.02 -0.09 46.97 -0.3 45.59 0.37C44.29 1 43.5 2.68 44.36 3.97C45.36 5.47 47.62 5 49.07 4.62C49.69 4.47 49.41 3.53 48.79 3.69Z" fill="#46A358" fill-opacity="1.000000" fill-rule="nonzero"/>
        <path id="Vector" d="M55.87 13.34C54.44 13.08 52.88 13.49 52.23 14.89C51.7 16.02 52.2 17.49 53.43 17.92C54.67 18.35 56.55 17.82 57.24 16.68C57.9 15.58 57.42 14.19 56.38 13.54C55.84 13.2 55.36 14.06 55.9 14.39C56.57 14.81 56.79 15.76 56.24 16.38C55.75 16.92 54.71 17.15 54.01 17.03C53.1 16.87 52.75 15.93 53.2 15.16C53.7 14.31 54.72 14.13 55.62 14.29C56.25 14.4 56.49 13.45 55.87 13.34Z" fill="#46A358" fill-opacity="1.000000" fill-rule="nonzero"/>
        <path id="Vector" d="M63.56 18.76C62.31 18.68 60.57 18.86 60.29 20.37C60.06 21.62 61.49 23.26 62.59 23.7C65.71 24.96 66.38 18.68 63.69 18.85C63.05 18.89 63.07 19.87 63.71 19.83C64.58 19.77 64.37 21.82 64.17 22.23C63.7 23.19 62.81 22.84 62.22 22.23C61.77 21.75 60.95 20.91 61.42 20.23C61.88 19.58 62.89 19.7 63.58 19.74C64.22 19.79 64.19 18.8 63.56 18.76Z" fill="#46A358" fill-opacity="1.000000" fill-rule="nonzero"/>
        <path id="Vector" d="M45.63 6.17C45.53 6.5 45.43 6.83 45.33 7.16C45.21 7.57 45.85 7.73 45.97 7.32C46.07 6.99 46.18 6.66 46.27 6.33C46.4 5.93 45.76 5.77 45.63 6.17Z" fill="#46A358" fill-opacity="1.000000" fill-rule="nonzero"/>
        <path id="Vector" d="M47.05 6.23C47.05 6.45 47.06 6.66 47.06 6.88C47.07 7.3 47.73 7.29 47.72 6.87C47.72 6.65 47.71 6.43 47.71 6.21C47.7 5.79 47.04 5.81 47.05 6.23Z" fill="#46A358" fill-opacity="1.000000" fill-rule="nonzero"/>
        <path id="Vector" d="M46.58 10.16C47 10.15 46.99 9.5 46.56 9.51C46.14 9.52 46.15 10.17 46.58 10.16Z" fill="#46A358" fill-opacity="1.000000" fill-rule="nonzero"/>
        <path id="Vector" d="M44.6 10.53C44.57 10.89 44.54 11.26 44.51 11.62C44.5 11.8 44.69 11.95 44.85 11.94C45.05 11.94 45.16 11.79 45.18 11.61C45.21 11.25 45.24 10.88 45.26 10.52C45.28 10.34 45.09 10.19 44.92 10.2C44.73 10.2 44.61 10.35 44.6 10.53Z" fill="#46A358" fill-opacity="1.000000" fill-rule="nonzero"/>
        <path id="Vector" d="M46.17 11.59C46.18 11.99 46.18 12.39 46.19 12.79C46.2 13.21 46.86 13.2 46.85 12.78C46.84 12.38 46.84 11.98 46.83 11.58C46.82 11.15 46.16 11.17 46.17 11.59Z" fill="#46A358" fill-opacity="1.000000" fill-rule="nonzero"/>
        <path id="Vector" d="M47.34 9.27C47.38 9.6 47.42 9.93 47.47 10.25C47.49 10.43 47.61 10.58 47.8 10.57C47.97 10.57 48.15 10.42 48.13 10.24C48.09 9.91 48.04 9.58 48 9.26C47.98 9.08 47.85 8.94 47.66 8.94C47.5 8.94 47.31 9.1 47.34 9.27Z" fill="#46A358" fill-opacity="1.000000" fill-rule="nonzero"/>
        <path id="Vector" d="M47.43 14.18C47.44 14.36 47.44 14.54 47.44 14.73C47.45 15.15 48.11 15.14 48.1 14.71C48.1 14.53 48.1 14.35 48.09 14.17C48.09 13.75 47.42 13.76 47.43 14.18Z" fill="#46A358" fill-opacity="1.000000" fill-rule="nonzero"/>
        <path id="Vector" d="M46 8.86C45.97 9.19 46.04 9.49 46.18 9.79C46.25 9.95 46.49 9.98 46.63 9.9C46.8 9.79 46.81 9.61 46.74 9.44C46.66 9.26 46.64 9.05 46.66 8.85C46.68 8.67 46.49 8.52 46.32 8.53C46.13 8.53 46.02 8.69 46 8.86Z" fill="#46A358" fill-opacity="1.000000" fill-rule="nonzero"/>
        <path id="Vector" d="M43.69 14.06C43.62 14.43 43.56 14.79 43.49 15.16C43.42 15.57 44.06 15.73 44.13 15.32C44.2 14.95 44.27 14.59 44.33 14.22C44.4 13.81 43.77 13.64 43.69 14.06Z" fill="#46A358" fill-opacity="1.000000" fill-rule="nonzero"/>
        <path id="Vector" d="M45.51 16.32C45.48 16.57 45.45 16.83 45.42 17.08C45.4 17.26 45.47 17.43 45.66 17.48C45.81 17.52 46.04 17.42 46.06 17.25C46.09 16.99 46.13 16.74 46.16 16.48C46.18 16.3 46.11 16.13 45.92 16.08C45.76 16.04 45.54 16.14 45.51 16.32Z" fill="#46A358" fill-opacity="1.000000" fill-rule="nonzero"/>
        <path id="Vector" d="M44.93 20.97C44.98 21.25 44.95 21.52 44.86 21.79C44.73 22.19 45.37 22.35 45.5 21.95C45.63 21.57 45.64 21.18 45.57 20.79C45.53 20.61 45.31 20.52 45.16 20.57C44.97 20.62 44.89 20.8 44.93 20.97Z" fill="#46A358" fill-opacity="1.000000" fill-rule="nonzero"/>
        <path id="Vector" d="M42.91 18.33C42.88 18.59 42.85 18.84 42.82 19.1C42.8 19.28 42.87 19.45 43.05 19.5C43.21 19.54 43.44 19.44 43.46 19.26C43.49 19.01 43.52 18.75 43.55 18.5C43.57 18.32 43.5 18.15 43.31 18.1C43.15 18.06 42.93 18.16 42.91 18.33Z" fill="#46A358" fill-opacity="1.000000" fill-rule="nonzero"/>
        <path id="Vector" d="M47.42 18.85C47.5 19.22 47.57 19.58 47.65 19.94C47.74 20.35 48.38 20.16 48.29 19.75C48.21 19.39 48.13 19.03 48.05 18.67C47.96 18.25 47.33 18.44 47.42 18.85Z" fill="#46A358" fill-opacity="1.000000" fill-rule="nonzero"/>
        <path id="Vector" d="M47.85 23.66C47.86 24.03 47.87 24.39 47.87 24.75C47.88 25.17 48.55 25.16 48.54 24.74C48.53 24.38 48.52 24.01 48.51 23.65C48.51 23.23 47.84 23.24 47.85 23.66Z" fill="#46A358" fill-opacity="1.000000" fill-rule="nonzero"/>
        <path id="Vector" d="M47.07 28.46C47.11 28.71 47.15 28.97 47.19 29.22C47.22 29.39 47.45 29.49 47.61 29.44C47.79 29.38 47.86 29.21 47.83 29.03C47.78 28.78 47.74 28.53 47.7 28.27C47.67 28.1 47.45 28.01 47.29 28.05C47.1 28.11 47.04 28.28 47.07 28.46Z" fill="#46A358" fill-opacity="1.000000" fill-rule="nonzero"/>
        <path id="Vector" d="M44.37 26.02C44.37 26.24 44.38 26.46 44.38 26.68C44.39 27.1 45.05 27.09 45.04 26.67C45.04 26.45 45.03 26.23 45.03 26.01C45.02 25.59 44.36 25.6 44.37 26.02Z" fill="#46A358" fill-opacity="1.000000" fill-rule="nonzero"/>
        <path id="Vector" d="M42.54 23.22C42.57 23.5 42.54 23.75 42.46 24.01C42.34 24.42 42.98 24.58 43.1 24.17C43.2 23.86 43.23 23.53 43.21 23.21C43.17 22.8 42.51 22.81 42.54 23.22Z" fill="#46A358" fill-opacity="1.000000" fill-rule="nonzero"/>
        <path id="Vector" d="M43.38 30.76C43.34 31.01 43.31 31.27 43.28 31.52C43.26 31.7 43.33 31.87 43.52 31.92C43.67 31.96 43.9 31.86 43.92 31.68C43.95 31.43 43.98 31.17 44.02 30.92C44.04 30.74 43.97 30.57 43.78 30.52C43.62 30.48 43.4 30.58 43.38 30.76Z" fill="#46A358" fill-opacity="1.000000" fill-rule="nonzero"/>
        <path id="Vector" d="M46.75 34.46C46.79 34.68 46.83 34.9 46.88 35.11C46.91 35.29 47.13 35.38 47.29 35.33C47.47 35.28 47.54 35.1 47.51 34.93C47.47 34.71 47.43 34.49 47.38 34.28C47.35 34.1 47.13 34.01 46.97 34.06C46.79 34.11 46.72 34.29 46.75 34.46Z" fill="#46A358" fill-opacity="1.000000" fill-rule="nonzero"/>
        <path id="Vector" d="M44.96 38.21C45.04 38.57 45.12 38.93 45.2 39.29C45.3 39.71 45.93 39.52 45.84 39.11C45.76 38.74 45.68 38.38 45.6 38.02C45.5 37.61 44.87 37.8 44.96 38.21Z" fill="#46A358" fill-opacity="1.000000" fill-rule="nonzero"/>
        <path id="Vector" d="M48.65 40.58C48.58 40.83 48.52 41.09 48.45 41.35C48.34 41.75 48.98 41.91 49.09 41.51C49.16 41.25 49.23 41 49.3 40.74C49.41 40.33 48.76 40.17 48.65 40.58Z" fill="#46A358" fill-opacity="1.000000" fill-rule="nonzero"/>
        <path id="Vector" d="M48.16 12.18C48.2 12.44 48.25 12.69 48.29 12.94C48.32 13.12 48.55 13.21 48.7 13.16C48.89 13.11 48.95 12.93 48.92 12.76C48.88 12.5 48.84 12.25 48.79 12C48.76 11.82 48.54 11.73 48.38 11.78C48.2 11.83 48.13 12.01 48.16 12.18Z" fill="#46A358" fill-opacity="1.000000" fill-rule="nonzero"/>
        <path id="Vector" d="M48.24 16.67C48.29 17 48.33 17.33 48.38 17.65C48.41 17.83 48.52 17.98 48.72 17.97C48.88 17.97 49.06 17.82 49.04 17.64C49 17.31 48.95 16.99 48.9 16.66C48.88 16.49 48.76 16.34 48.56 16.34C48.4 16.34 48.21 16.5 48.24 16.67Z" fill="#46A358" fill-opacity="1.000000" fill-rule="nonzero"/>
        <path id="Vector" d="M53.2 20.31C53.12 20.82 53.02 21.33 52.93 21.84C52.86 22.26 53.5 22.42 53.58 22C53.66 21.49 53.76 20.98 53.85 20.47C53.92 20.05 53.28 19.89 53.2 20.31Z" fill="#46A358" fill-opacity="1.000000" fill-rule="nonzero"/>
        <path id="Vector" d="M54.49 19.38C54.5 19.64 54.5 19.89 54.51 20.15C54.52 20.57 55.18 20.55 55.17 20.13C55.16 19.88 55.16 19.62 55.15 19.37C55.14 18.95 54.49 18.96 54.49 19.38Z" fill="#46A358" fill-opacity="1.000000" fill-rule="nonzero"/>
        <path id="Vector" d="M54.13 22.88C54.07 23.43 54.01 23.97 53.95 24.52C53.9 24.94 54.56 24.92 54.61 24.51C54.67 23.96 54.73 23.41 54.79 22.87C54.84 22.45 54.18 22.47 54.13 22.88Z" fill="#46A358" fill-opacity="1.000000" fill-rule="nonzero"/>
        <path id="Vector" d="M52.42 23.84C52.27 24.13 52.14 24.43 51.99 24.72C51.81 25.1 52.39 25.42 52.57 25.04C52.72 24.74 52.85 24.45 53 24.16C53.18 23.78 52.6 23.46 52.42 23.84Z" fill="#46A358" fill-opacity="1.000000" fill-rule="nonzero"/>
        <path id="Vector" d="M51.42 22.09C51.33 22.31 51.25 22.53 51.17 22.75C51.1 22.92 51.25 23.11 51.4 23.15C51.59 23.2 51.74 23.08 51.81 22.92C51.89 22.69 51.98 22.47 52.06 22.25C52.13 22.09 51.98 21.9 51.82 21.85C51.64 21.8 51.49 21.92 51.42 22.09Z" fill="#46A358" fill-opacity="1.000000" fill-rule="nonzero"/>
        <path id="Vector" d="M53.31 26.39C53.3 26.68 53.29 26.97 53.27 27.26C53.26 27.68 53.92 27.67 53.94 27.25C53.95 26.96 53.96 26.67 53.97 26.37C53.99 25.95 53.33 25.97 53.31 26.39Z" fill="#46A358" fill-opacity="1.000000" fill-rule="nonzero"/>
        <path id="Vector" d="M54.67 28.11C54.65 28.38 54.64 28.65 54.63 28.92C54.62 29.1 54.8 29.25 54.97 29.24C55.15 29.24 55.28 29.09 55.29 28.91C55.3 28.64 55.32 28.36 55.33 28.09C55.34 27.92 55.16 27.77 54.99 27.77C54.8 27.78 54.68 27.93 54.67 28.11Z" fill="#46A358" fill-opacity="1.000000" fill-rule="nonzero"/>
        <path id="Vector" d="M54.14 31.03C54.11 31.27 54.08 31.5 54.05 31.74C54.03 31.91 54.11 32.09 54.29 32.14C54.45 32.18 54.67 32.08 54.69 31.9C54.72 31.67 54.76 31.43 54.79 31.19C54.81 31.02 54.73 30.84 54.55 30.79C54.39 30.75 54.17 30.85 54.14 31.03Z" fill="#46A358" fill-opacity="1.000000" fill-rule="nonzero"/>
        <path id="Vector" d="M51.68 29.01C51.64 29.21 51.61 29.41 51.58 29.61C51.55 29.78 51.63 29.96 51.81 30.01C51.98 30.05 52.19 29.95 52.22 29.77C52.25 29.57 52.28 29.37 52.32 29.17C52.35 29 52.26 28.82 52.08 28.77C51.92 28.73 51.71 28.83 51.68 29.01Z" fill="#46A358" fill-opacity="1.000000" fill-rule="nonzero"/>
        <path id="Vector" d="M52.15 34.21C52.16 34.35 52.16 34.5 52.16 34.65C52.17 35.07 52.83 35.05 52.82 34.63C52.82 34.49 52.82 34.34 52.81 34.2C52.8 33.78 52.14 33.79 52.15 34.21Z" fill="#46A358" fill-opacity="1.000000" fill-rule="nonzero"/>
        <path id="Vector" d="M54.29 36.13C54.29 36.27 54.3 36.42 54.3 36.57C54.31 36.99 54.97 36.97 54.96 36.55C54.96 36.41 54.96 36.26 54.95 36.12C54.94 35.7 54.28 35.71 54.29 36.13Z" fill="#46A358" fill-opacity="1.000000" fill-rule="nonzero"/>
        <path id="Vector" d="M52.38 40.1C52.41 40.35 52.38 40.59 52.3 40.83C52.25 41 52.38 41.19 52.54 41.23C52.72 41.27 52.88 41.16 52.94 40.99C53.04 40.7 53.08 40.39 53.05 40.09C53.03 39.91 52.9 39.76 52.71 39.77C52.54 39.77 52.36 39.92 52.38 40.1Z" fill="#46A358" fill-opacity="1.000000" fill-rule="nonzero"/>
        <path id="Vector" d="M53.2 18.65C53.12 18.81 53.03 18.98 52.94 19.14C52.74 19.52 53.32 19.84 53.52 19.46C53.61 19.29 53.69 19.13 53.78 18.96C53.98 18.59 53.4 18.27 53.2 18.65Z" fill="#46A358" fill-opacity="1.000000" fill-rule="nonzero"/>
        <path id="Vector" d="M36.04 12.43C36.09 12.77 36.16 13.12 36.22 13.46C36.25 13.63 36.47 13.73 36.63 13.68C36.82 13.62 36.88 13.45 36.85 13.28C36.79 12.93 36.73 12.58 36.67 12.24C36.64 12.07 36.41 11.98 36.26 12.02C36.07 12.08 36 12.25 36.04 12.43Z" fill="#46A358" fill-opacity="1.000000" fill-rule="nonzero"/>
        <path id="Vector" d="M37.02 14.59C37.17 14.95 37.33 15.31 37.48 15.67C37.55 15.84 37.71 15.95 37.89 15.89C38.05 15.85 38.18 15.65 38.11 15.49C37.96 15.13 37.81 14.76 37.65 14.4C37.58 14.24 37.43 14.13 37.24 14.18C37.09 14.23 36.95 14.43 37.02 14.59Z" fill="#46A358" fill-opacity="1.000000" fill-rule="nonzero"/>
        <path id="Vector" d="M36.12 15.8C36.04 16.3 36.05 16.78 36.14 17.28C36.21 17.69 36.84 17.51 36.77 17.09C36.71 16.72 36.71 16.33 36.76 15.96C36.82 15.55 36.18 15.38 36.12 15.8Z" fill="#46A358" fill-opacity="1.000000" fill-rule="nonzero"/>
        <path id="Vector" d="M37.38 17.69C37.49 18 37.6 18.31 37.71 18.61C37.85 19.01 38.49 18.83 38.35 18.43C38.23 18.12 38.12 17.81 38.01 17.5C37.87 17.11 37.23 17.29 37.38 17.69Z" fill="#46A358" fill-opacity="1.000000" fill-rule="nonzero"/>
        <path id="Vector" d="M35.84 19C35.84 19.36 35.85 19.72 35.86 20.09C35.87 20.51 36.53 20.5 36.52 20.07C36.51 19.71 36.5 19.35 36.5 18.98C36.49 18.56 35.83 18.57 35.84 19Z" fill="#46A358" fill-opacity="1.000000" fill-rule="nonzero"/>
        <path id="Vector" d="M37.08 20.23C37.08 20.55 37.09 20.88 37.1 21.21C37.11 21.63 37.77 21.62 37.76 21.2C37.75 20.87 37.75 20.54 37.74 20.21C37.73 19.79 37.07 19.81 37.08 20.23Z" fill="#46A358" fill-opacity="1.000000" fill-rule="nonzero"/>
        <path id="Vector" d="M38.93 20.87C39.06 21.25 39.2 21.63 39.33 22.01C39.47 22.41 40.1 22.23 39.96 21.83C39.83 21.45 39.7 21.07 39.56 20.69C39.42 20.29 38.79 20.48 38.93 20.87Z" fill="#46A358" fill-opacity="1.000000" fill-rule="nonzero"/>
        <path id="Vector" d="M39.65 24.13C39.69 24.33 39.74 24.53 39.77 24.73C39.81 24.91 40.03 25 40.19 24.95C40.37 24.9 40.44 24.72 40.41 24.55C40.37 24.35 40.32 24.15 40.28 23.95C40.25 23.77 40.03 23.68 39.87 23.73C39.69 23.78 39.62 23.96 39.65 24.13Z" fill="#46A358" fill-opacity="1.000000" fill-rule="nonzero"/>
        <path id="Vector" d="M37.84 24.17C37.94 24.48 38.02 24.79 38.06 25.11C38.08 25.29 38.21 25.44 38.4 25.44C38.56 25.43 38.74 25.28 38.72 25.1C38.68 24.72 38.6 24.35 38.47 23.98C38.33 23.59 37.69 23.77 37.84 24.17Z" fill="#46A358" fill-opacity="1.000000" fill-rule="nonzero"/>
        <path id="Vector" d="M36.14 22.86C36.14 23.12 36.15 23.37 36.15 23.63C36.16 24.05 36.83 24.04 36.82 23.61C36.81 23.36 36.81 23.1 36.8 22.85C36.79 22.43 36.13 22.44 36.14 22.86Z" fill="#46A358" fill-opacity="1.000000" fill-rule="nonzero"/>
        <path id="Vector" d="M36.94 26.77C36.96 27.1 37.02 27.42 37.13 27.73C37.28 28.12 37.91 27.94 37.77 27.54C37.68 27.29 37.62 27.03 37.6 26.76C37.57 26.34 36.91 26.35 36.94 26.77Z" fill="#46A358" fill-opacity="1.000000" fill-rule="nonzero"/>
        <path id="Vector" d="M38.38 29.56C38.44 29.76 38.5 29.96 38.56 30.15C38.68 30.56 39.32 30.37 39.2 29.97C39.14 29.77 39.08 29.57 39.02 29.37C38.9 28.97 38.27 29.15 38.38 29.56Z" fill="#46A358" fill-opacity="1.000000" fill-rule="nonzero"/>
        <path id="Vector" d="M39.16 27.03C39.2 27.18 39.24 27.32 39.28 27.47C39.39 27.87 40.03 27.69 39.92 27.28C39.88 27.14 39.84 26.99 39.8 26.85C39.69 26.44 39.05 26.63 39.16 27.03Z" fill="#46A358" fill-opacity="1.000000" fill-rule="nonzero"/>
        <path id="Vector" d="M37.29 32.47C37.37 32.8 37.45 33.12 37.53 33.45C37.63 33.86 38.27 33.67 38.17 33.26C38.08 32.94 38 32.61 37.92 32.29C37.82 31.88 37.18 32.06 37.29 32.47Z" fill="#46A358" fill-opacity="1.000000" fill-rule="nonzero"/>
        <path id="Vector" d="M38.93 37.24C38.99 37.38 39.05 37.52 39.11 37.67C39.17 37.83 39.33 37.94 39.52 37.89C39.68 37.84 39.8 37.65 39.74 37.48C39.68 37.34 39.62 37.19 39.56 37.05C39.5 36.89 39.33 36.78 39.15 36.83C38.99 36.88 38.86 37.07 38.93 37.24Z" fill="#46A358" fill-opacity="1.000000" fill-rule="nonzero"/>
        <path id="Vector" d="M60.48 23.68C60.3 24.03 60.12 24.38 59.95 24.73C59.75 25.1 60.33 25.42 60.53 25.04C60.7 24.69 60.88 24.35 61.05 24C61.25 23.62 60.67 23.3 60.48 23.68Z" fill="#46A358" fill-opacity="1.000000" fill-rule="nonzero"/>
        <path id="Vector" d="M61.4 24.5C61.32 24.83 61.23 25.16 61.15 25.49C61.05 25.9 61.69 26.06 61.79 25.65C61.88 25.32 61.96 24.99 62.04 24.66C62.15 24.25 61.51 24.09 61.4 24.5Z" fill="#46A358" fill-opacity="1.000000" fill-rule="nonzero"/>
        <path id="Vector" d="M60.59 27.63C60.51 27.9 60.42 28.18 60.34 28.45C60.21 28.86 60.86 29.02 60.98 28.61C61.06 28.34 61.14 28.06 61.23 27.79C61.35 27.39 60.71 27.23 60.59 27.63Z" fill="#46A358" fill-opacity="1.000000" fill-rule="nonzero"/>
        <path id="Vector" d="M60.03 26.3C59.96 26.43 59.89 26.56 59.82 26.69C59.62 27.06 60.19 27.38 60.4 27.01C60.47 26.88 60.54 26.75 60.61 26.62C60.82 26.25 60.24 25.93 60.03 26.3Z" fill="#46A358" fill-opacity="1.000000" fill-rule="nonzero"/>
        <path id="Vector" d="M61.67 26.46C61.64 26.71 61.61 26.97 61.58 27.23C61.56 27.4 61.63 27.58 61.82 27.62C61.97 27.66 62.2 27.57 62.22 27.39C62.25 27.13 62.28 26.88 62.31 26.62C62.33 26.45 62.26 26.27 62.07 26.22C61.91 26.18 61.69 26.28 61.67 26.46Z" fill="#46A358" fill-opacity="1.000000" fill-rule="nonzero"/>
        <path id="Vector" d="M58.55 28.16C58.48 28.37 58.38 28.56 58.27 28.74C58.03 29.09 58.61 29.41 58.84 29.06C59 28.83 59.11 28.58 59.19 28.32C59.24 28.15 59.12 27.96 58.95 27.92C58.77 27.88 58.6 27.99 58.55 28.16Z" fill="#46A358" fill-opacity="1.000000" fill-rule="nonzero"/>
        <path id="Vector" d="M58.53 30.97C58.39 31.2 58.32 31.47 58.33 31.74C58.35 32.16 59.01 32.15 58.99 31.73C58.99 31.56 59.02 31.43 59.11 31.29C59.33 30.93 58.75 30.61 58.53 30.97Z" fill="#46A358" fill-opacity="1.000000" fill-rule="nonzero"/>
        <path id="Vector" d="M60.25 30.25C60.19 30.47 60.12 30.69 60.06 30.91C59.94 31.32 60.58 31.48 60.7 31.07C60.77 30.85 60.83 30.63 60.9 30.41C61.02 30.01 60.37 29.85 60.25 30.25Z" fill="#46A358" fill-opacity="1.000000" fill-rule="nonzero"/>
        <path id="Vector" d="M59.71 33.48C59.64 33.72 59.57 33.95 59.5 34.19C59.39 34.6 60.03 34.76 60.14 34.35C60.21 34.11 60.28 33.88 60.35 33.64C60.47 33.24 59.82 33.07 59.71 33.48Z" fill="#46A358" fill-opacity="1.000000" fill-rule="nonzero"/>
        <path id="Vector" d="M61.81 28.83C61.79 28.98 61.78 29.12 61.76 29.27C61.74 29.45 61.94 29.59 62.1 29.59C62.3 29.59 62.4 29.43 62.42 29.26C62.44 29.11 62.45 28.97 62.47 28.82C62.49 28.64 62.29 28.49 62.13 28.5C61.93 28.5 61.83 28.65 61.81 28.83Z" fill="#46A358" fill-opacity="1.000000" fill-rule="nonzero"/>
        <path id="Vector" d="M57.65 35.37C57.62 35.49 57.58 35.59 57.55 35.71C57.42 36.11 58.06 36.27 58.19 35.87C58.22 35.75 58.26 35.65 58.29 35.54C58.42 35.13 57.78 34.98 57.65 35.37Z" fill="#46A358" fill-opacity="1.000000" fill-rule="nonzero"/>
        <path id="Vector" d="M57.12 38.72C57.05 38.9 56.97 39.08 56.9 39.27C56.84 39.43 56.98 39.62 57.14 39.66C57.34 39.71 57.48 39.59 57.55 39.43C57.62 39.25 57.69 39.06 57.76 38.88C57.82 38.72 57.68 38.52 57.52 38.48C57.33 38.43 57.18 38.55 57.12 38.72Z" fill="#46A358" fill-opacity="1.000000" fill-rule="nonzero"/>
        <path id="Vector" d="M59.72 37.38C59.72 37.49 59.72 37.6 59.73 37.71C59.74 38.13 60.4 38.12 60.39 37.7C60.39 37.59 60.39 37.48 60.38 37.37C60.37 36.95 59.71 36.96 59.72 37.38Z" fill="#46A358" fill-opacity="1.000000" fill-rule="nonzero"/>
        <path id="Vector" d="M58.49 41.72C58.47 41.87 58.46 42.01 58.44 42.16C58.42 42.33 58.62 42.48 58.78 42.48C58.98 42.47 59.08 42.32 59.1 42.14C59.12 42 59.13 41.85 59.15 41.71C59.17 41.53 58.97 41.38 58.81 41.38C58.62 41.39 58.51 41.54 58.49 41.72Z" fill="#46A358" fill-opacity="1.000000" fill-rule="nonzero"/>
        <path id="Vector" d="M28.25 28.08C28.31 28.26 28.37 28.44 28.43 28.62C28.55 29.02 29.19 28.83 29.06 28.43C29.01 28.25 28.95 28.07 28.89 27.89C28.76 27.49 28.13 27.67 28.25 28.08Z" fill="#46A358" fill-opacity="1.000000" fill-rule="nonzero"/>
        <path id="Vector" d="M28.94 27.33C29.16 27.6 29.38 27.88 29.6 28.14C29.72 28.28 29.96 28.25 30.07 28.13C30.21 27.99 30.17 27.81 30.06 27.67C29.84 27.4 29.61 27.13 29.39 26.86C29.28 26.72 29.04 26.75 28.93 26.87C28.79 27.01 28.82 27.2 28.94 27.33Z" fill="#46A358" fill-opacity="1.000000" fill-rule="nonzero"/>
        <path id="Vector" d="M30.21 29.64C30.4 29.9 30.59 30.17 30.78 30.44C31.02 30.78 31.59 30.44 31.35 30.1C31.15 29.83 30.96 29.56 30.77 29.3C30.52 28.95 29.96 29.29 30.21 29.64Z" fill="#46A358" fill-opacity="1.000000" fill-rule="nonzero"/>
        <path id="Vector" d="M29.39 30.42C29.55 30.67 29.7 30.92 29.85 31.17C30.07 31.53 30.63 31.19 30.42 30.83C30.26 30.58 30.11 30.33 29.96 30.08C29.74 29.72 29.17 30.06 29.39 30.42Z" fill="#46A358" fill-opacity="1.000000" fill-rule="nonzero"/>
        <path id="Vector" d="M30.88 33.12C31.07 33.46 31.26 33.8 31.45 34.14C31.66 34.5 32.23 34.16 32.02 33.8C31.83 33.46 31.63 33.12 31.44 32.78C31.23 32.41 30.67 32.75 30.88 33.12Z" fill="#46A358" fill-opacity="1.000000" fill-rule="nonzero"/>
        <path id="Vector" d="M31.46 32.13C31.59 32.32 31.73 32.52 31.86 32.72C32.09 33.07 32.66 32.73 32.42 32.38C32.29 32.18 32.16 31.98 32.03 31.79C31.79 31.44 31.22 31.77 31.46 32.13Z" fill="#46A358" fill-opacity="1.000000" fill-rule="nonzero"/>
        <path id="Vector" d="M31.77 30.75C31.88 30.98 32.06 31.16 32.29 31.3C32.66 31.51 32.98 30.94 32.61 30.72C32.47 30.65 32.39 30.55 32.33 30.41C32.26 30.25 32.02 30.22 31.88 30.3C31.71 30.41 31.69 30.59 31.77 30.75Z" fill="#46A358" fill-opacity="1.000000" fill-rule="nonzero"/>
        <path id="Vector" d="M29.29 32.47C29.33 32.65 29.37 32.83 29.41 33.01C29.45 33.19 29.66 33.28 29.82 33.23C30.01 33.18 30.08 33 30.04 32.83C30 32.65 29.96 32.47 29.92 32.28C29.88 32.11 29.67 32.02 29.51 32.06C29.33 32.12 29.25 32.3 29.29 32.47Z" fill="#46A358" fill-opacity="1.000000" fill-rule="nonzero"/>
        <path id="Vector" d="M31.38 35.89C31.53 36.2 31.68 36.5 31.83 36.81C31.91 36.97 32.14 37 32.29 36.92C32.45 36.82 32.47 36.62 32.39 36.46C32.24 36.16 32.09 35.85 31.94 35.55C31.86 35.38 31.63 35.35 31.48 35.44C31.32 35.54 31.3 35.73 31.38 35.89Z" fill="#46A358" fill-opacity="1.000000" fill-rule="nonzero"/>
        <path id="Vector" d="M33.85 34.96C33.96 35.18 34.08 35.39 34.19 35.61C34.39 35.98 34.95 35.64 34.76 35.27C34.64 35.05 34.53 34.84 34.41 34.62C34.21 34.25 33.65 34.59 33.85 34.96Z" fill="#46A358" fill-opacity="1.000000" fill-rule="nonzero"/>
        <path id="Vector" d="M34.6 39.64C34.7 39.82 34.79 40 34.89 40.18C35.1 40.55 35.66 40.21 35.46 39.84C35.36 39.66 35.27 39.48 35.17 39.3C34.97 38.93 34.4 39.27 34.6 39.64Z" fill="#46A358" fill-opacity="1.000000" fill-rule="nonzero"/>
        <path id="Vector" d="M35.78 37.98C35.89 38.16 36.01 38.34 36.12 38.52C36.34 38.88 36.91 38.54 36.68 38.18C36.57 38 36.46 37.82 36.34 37.64C36.11 37.29 35.55 37.63 35.78 37.98Z" fill="#46A358" fill-opacity="1.000000" fill-rule="nonzero"/>
        <path id="Vector" d="M37.09 43.03C37.19 43.19 37.28 43.35 37.38 43.51C37.59 43.88 38.15 43.54 37.94 43.17C37.85 43.01 37.75 42.85 37.66 42.69C37.45 42.32 36.88 42.66 37.09 43.03Z" fill="#46A358" fill-opacity="1.000000" fill-rule="nonzero"/>
        <path id="Vector" d="M26.42 41.01C26.64 41.11 26.87 41.21 27.09 41.32C27.47 41.5 27.8 40.92 27.41 40.74C27.19 40.64 26.96 40.54 26.74 40.43C26.36 40.26 26.04 40.83 26.42 41.01Z" fill="#46A358" fill-opacity="1.000000" fill-rule="nonzero"/>
        <path id="Vector" d="M28.53 41.96C28.77 42.13 29.02 42.31 29.26 42.48C29.41 42.59 29.63 42.5 29.71 42.35C29.81 42.18 29.73 42.01 29.58 41.91C29.34 41.74 29.09 41.56 28.85 41.39C28.7 41.28 28.48 41.37 28.4 41.51C28.31 41.68 28.39 41.85 28.53 41.96Z" fill="#46A358" fill-opacity="1.000000" fill-rule="nonzero"/>
        <path id="Vector" d="M28.2 40.96C28.37 40.99 28.53 41.05 28.68 41.13C29.06 41.34 29.38 40.76 29 40.56C28.8 40.45 28.59 40.37 28.37 40.32C27.95 40.23 27.79 40.86 28.2 40.96Z" fill="#46A358" fill-opacity="1.000000" fill-rule="nonzero"/>
        <path id="Vector" d="M30.14 42.35C30.29 42.46 30.44 42.57 30.59 42.67C30.74 42.77 30.96 42.69 31.04 42.54C31.14 42.37 31.06 42.2 30.91 42.1C30.76 41.99 30.61 41.89 30.47 41.78C30.32 41.68 30.09 41.76 30.02 41.91C29.92 42.08 30 42.25 30.14 42.35Z" fill="#46A358" fill-opacity="1.000000" fill-rule="nonzero"/>
        <path id="Vector" d="M30.1 43.33C30.17 43.44 30.25 43.55 30.33 43.66C30.57 44 31.13 43.66 30.89 43.32C30.82 43.21 30.74 43.1 30.66 42.99C30.42 42.64 29.85 42.98 30.1 43.33Z" fill="#46A358" fill-opacity="1.000000" fill-rule="nonzero"/>
        <path id="Vector" d="M31.6 43.86C31.75 43.98 31.89 44.11 32.05 44.23C32.18 44.35 32.38 44.36 32.51 44.22C32.63 44.1 32.64 43.87 32.5 43.76C32.35 43.64 32.21 43.51 32.05 43.39C31.92 43.27 31.72 43.26 31.59 43.4C31.47 43.51 31.46 43.74 31.6 43.86Z" fill="#46A358" fill-opacity="1.000000" fill-rule="nonzero"/>
        <path id="Vector" d="M65.76 34.22C65.4 34.15 65.05 34.16 64.7 34.25C64.29 34.35 64.48 34.98 64.89 34.88C65.12 34.82 65.36 34.81 65.59 34.85C66.01 34.93 66.17 34.3 65.76 34.22Z" fill="#46A358" fill-opacity="1.000000" fill-rule="nonzero"/>
        <path id="Vector" d="M63.47 34.9C63.35 34.99 63.22 35.08 63.09 35.18C62.95 35.28 62.89 35.47 62.98 35.63C63.07 35.77 63.3 35.85 63.44 35.74C63.57 35.64 63.7 35.55 63.82 35.46C63.96 35.35 64.03 35.17 63.93 35.01C63.84 34.86 63.62 34.79 63.47 34.9Z" fill="#46A358" fill-opacity="1.000000" fill-rule="nonzero"/>
        <path id="Vector" d="M63.58 34.58C64.01 34.57 63.99 33.91 63.57 33.92C63.14 33.93 63.15 34.59 63.58 34.58Z" fill="#46A358" fill-opacity="1.000000" fill-rule="nonzero"/>
    </g>
    <rect id="Frame" rx="-0.500000" width="82.000000" height="39.000000" transform="translate(0.500000 45.500000)" fill="#FFFFFF" fill-opacity="0"/>
    <g clip-path="url(#clip5_1980)">
        <path id="Vector" d="M30.38 47.61C28.04 53.63 26.39 59.91 25.85 66.37C25.39 71.88 25.53 77.83 28.55 82.65C28.9 83.2 29.75 82.67 29.41 82.11C26.38 77.29 26.38 71.23 26.91 65.72C27.5 59.58 29.12 53.59 31.35 47.86C31.58 47.26 30.61 47.01 30.38 47.61Z" fill="#727272" fill-opacity="1.000000" fill-rule="nonzero"/>
        <path id="Vector" d="M60.78 46.68C66.11 50.74 66.12 58.19 66.69 64.3C66.98 67.38 67.38 70.48 67.52 73.58C67.65 76.4 67.42 79.41 65.21 81.41C64.73 81.85 65.45 82.55 65.93 82.12C67.87 80.35 68.47 77.83 68.54 75.27C68.64 71.62 68.03 67.91 67.69 64.28C67.09 57.91 67.02 50.18 61.47 45.95C60.97 45.56 60.27 46.29 60.78 46.68Z" fill="#727272" fill-opacity="1.000000" fill-rule="nonzero"/>
        <path id="Vector" d="M28.75 82.85C31.58 83.88 34.47 84.14 37.44 84.39C40.73 84.67 44.04 85.1 47.35 84.98C50.7 84.86 54.07 84.38 57.41 84.01C60.32 83.69 63.22 83.28 65.94 82.1C66.52 81.85 66.25 80.87 65.65 81.13C62.83 82.35 59.84 82.73 56.81 83.06C53.66 83.39 50.49 83.85 47.33 83.96C44.23 84.07 41.12 83.69 38.03 83.43C34.95 83.17 31.93 82.94 29 81.87C28.39 81.64 28.15 82.63 28.75 82.85Z" fill="#727272" fill-opacity="1.000000" fill-rule="nonzero"/>
        <path id="Vector" d="M30.62 48.18C32.95 49.14 35.33 50 37.84 50.3C40.45 50.61 43.11 50.16 45.74 50.23C47.2 50.27 48.51 50.47 49.98 50.26C51.25 50.07 52.51 49.81 53.74 49.46C56.29 48.72 58.77 47.69 61.27 46.8C61.87 46.59 61.59 45.61 60.98 45.83C56.08 47.56 51.49 49.59 46.19 49.24C43.99 49.1 41.8 49.43 39.61 49.41C36.65 49.37 33.81 48.41 31.1 47.29C30.52 47.05 30.02 47.93 30.62 48.18Z" fill="#727272" fill-opacity="1.000000" fill-rule="nonzero"/>
        <path id="Vector" d="M0.66 51.24C6.26 52.13 11.47 54.82 15.38 59.01C19.16 63.07 21.28 68.42 25.4 72.19C25.88 72.62 26.58 71.89 26.1 71.46C21.73 67.46 19.55 61.68 15.34 57.53C11.41 53.64 6.32 51.11 0.91 50.25C0.27 50.15 0.02 51.13 0.66 51.24Z" fill="#727272" fill-opacity="1.000000" fill-rule="nonzero"/>
        <path id="Vector" d="M1.53 49.42C6.62 48.24 12.02 48.94 16.59 51.54C20.24 53.61 23.23 56.88 27.58 57.33C28.22 57.39 28.2 56.38 27.56 56.31C22.68 55.81 19.16 51.35 14.76 49.51C10.46 47.73 5.76 47.4 1.25 48.44C0.62 48.59 0.91 49.56 1.53 49.42Z" fill="#727272" fill-opacity="1.000000" fill-rule="nonzero"/>
        <path id="Vector" d="M0.72 48.74C0.34 49.27 0.09 49.9 0 50.55C-0.04 50.83 0.08 51.09 0.37 51.17C0.6 51.23 0.94 51.07 0.97 50.8C1.05 50.22 1.25 49.71 1.59 49.23C1.75 49.01 1.61 48.66 1.4 48.54C1.14 48.39 0.88 48.52 0.72 48.74Z" fill="#727272" fill-opacity="1.000000" fill-rule="nonzero"/>
        <path id="Vector" d="M64.81 49.67C66.87 45.65 73.44 45.13 77.15 46.97C81.17 48.97 83.03 53.81 81.38 58.04C79.94 61.72 76.26 63.53 73.23 65.65C71.95 66.55 70.53 67.56 69.64 68.88C68.72 70.26 68.84 72.03 67.93 73.41C67.57 73.95 68.44 74.44 68.8 73.9C69.38 73.03 69.54 72.1 69.8 71.11C70.17 69.72 70.89 68.82 71.94 67.91C73.73 66.35 75.84 65.21 77.76 63.81C81.14 61.32 83.52 57.79 82.89 53.36C82.31 49.33 79.12 45.99 75.17 45.26C71.2 44.52 65.96 45.23 63.93 49.17C63.63 49.75 64.51 50.24 64.81 49.67Z" fill="#727272" fill-opacity="1.000000" fill-rule="nonzero"/>
        <path id="Vector" d="M65.82 52.22C67.2 49.42 70.36 48.69 73.22 48.92C75.12 49.07 76.3 49.83 77.3 51.49C78.4 53.32 78.35 54.88 77.73 56.83C76.75 59.9 74.98 61.32 72.26 62.76C70.48 63.7 67.76 64.93 67.05 67.02C66.84 67.64 67.81 67.88 68.02 67.27C68.67 65.37 71.84 64.14 73.48 63.26C74.89 62.5 76.22 61.67 77.18 60.33C78.69 58.22 79.94 54.77 78.84 52.27C77.5 49.21 75.45 47.85 72.17 47.88C69.26 47.9 66.32 48.95 64.95 51.73C64.66 52.31 65.53 52.8 65.82 52.22Z" fill="#727272" fill-opacity="1.000000" fill-rule="nonzero"/>
        <path id="Vector" d="M47.3 59.57C44.36 60.01 41.88 62.23 41.58 65.33C41.3 68.29 43.26 72.14 46.61 71.92C49.65 71.71 52.36 68.71 52.64 65.71C52.95 62.41 50.51 59.54 47.2 59.68C46.56 59.71 46.58 60.72 47.22 60.7C50.13 60.57 52.13 63.26 51.59 66.1C51.15 68.39 48.96 70.71 46.59 70.9C43.66 71.15 42.17 67.39 42.64 64.95C43.08 62.62 45.05 60.93 47.32 60.58C47.95 60.49 47.94 59.47 47.3 59.57Z" fill="#727272" fill-opacity="1.000000" fill-rule="nonzero"/>
        <path id="Vector" d="M47.88 60.01C47.7 57.86 51.03 54.58 52.7 57.08C53.22 57.85 53.72 59.22 53.5 60.17C53.27 61.19 52.29 61.95 51.54 62.58C51.04 62.99 51.77 63.69 52.26 63.28C53.44 62.29 54.66 61.11 54.55 59.42C54.46 58.04 53.7 56.22 52.52 55.46C49.98 53.84 46.67 57.56 46.88 60.03C46.93 60.68 47.93 60.66 47.88 60.01Z" fill="#727272" fill-opacity="1.000000" fill-rule="nonzero"/>
        <path id="Vector" d="M52.52 63.51C53.78 62.75 57.02 62.95 56.68 65.13C56.36 67.21 53.71 67.29 52.14 67.31C51.5 67.32 51.52 68.34 52.16 68.33C54.37 68.3 58.22 67.6 57.67 64.43C57.24 61.95 53.78 61.56 52 62.64C51.45 62.97 51.97 63.84 52.52 63.51Z" fill="#727272" fill-opacity="1.000000" fill-rule="nonzero"/>
        <path id="Vector" d="M51.52 68.51C53.27 69.3 55.24 71.63 53.58 73.51C51.63 75.71 48.8 73.54 48.08 71.42C47.87 70.8 46.91 71.08 47.12 71.71C48.06 74.45 51.42 76.82 54.02 74.49C56.54 72.23 54.53 68.76 52 67.62C51.42 67.36 50.93 68.25 51.52 68.51Z" fill="#727272" fill-opacity="1.000000" fill-rule="nonzero"/>
        <path id="Vector" d="M46.64 71.67C46.73 73.38 46.26 75.91 44 75.61C42.97 75.47 42.18 74.53 42.23 73.47C42.27 72.52 42.93 71.4 43.3 70.53C43.54 69.93 42.67 69.43 42.42 70.03C41.89 71.31 40.97 72.81 41.31 74.25C41.59 75.42 42.5 76.35 43.67 76.59C46.65 77.19 47.77 74.07 47.64 71.65C47.61 71 46.61 71.01 46.64 71.67Z" fill="#727272" fill-opacity="1.000000" fill-rule="nonzero"/>
        <path id="Vector" d="M43.16 69.27C41.3 70.05 38.42 69.85 37.77 67.48C37.48 66.43 37.8 65.2 38.77 64.64C39.7 64.09 40.91 64.23 41.93 64.36C42.56 64.44 42.82 63.45 42.18 63.37C40.77 63.2 39.16 63.05 37.94 63.97C36.93 64.73 36.52 66.07 36.72 67.31C37.22 70.5 40.9 71.3 43.44 70.24C44.04 69.99 43.76 69.02 43.16 69.27Z" fill="#727272" fill-opacity="1.000000" fill-rule="nonzero"/>
        <path id="Vector" d="M42.54 63.49C40.86 62.58 39.98 59.22 41.45 57.77C43.39 55.86 45.78 58.56 46.95 60.02C47.36 60.53 48.05 59.79 47.65 59.29C46.11 57.38 42.79 54.46 40.53 57.21C38.86 59.24 39.86 63.18 42.05 64.38C42.62 64.69 43.11 63.8 42.54 63.49Z" fill="#727272" fill-opacity="1.000000" fill-rule="nonzero"/>
        <path id="Vector" d="M44.15 70.95C43.36 71.72 42.84 73.81 44.06 74.45C45.51 75.21 46.16 72.62 46.35 71.68C46.44 71.26 45.79 71.09 45.7 71.52C45.62 71.94 45.51 72.36 45.35 72.76C45.28 72.96 45.19 73.16 45.09 73.35C44.94 73.65 44.85 73.84 44.49 73.8C43.54 73.68 44.19 71.85 44.63 71.42C44.94 71.12 44.46 70.65 44.15 70.95Z" fill="#727272" fill-opacity="1.000000" fill-rule="nonzero"/>
        <path id="Vector" d="M48.45 71C48.28 71.97 49.36 72.74 50.14 73.09C50.93 73.44 52.03 73.56 52.76 73.01C53.47 72.48 53.36 71.52 53.05 70.79C52.64 69.79 51.79 69.12 50.8 68.77C50.4 68.63 50.24 69.29 50.64 69.43C51.24 69.64 51.77 70 52.15 70.52C52.28 70.7 52.38 70.9 52.46 71.11C52.65 71.6 52.68 71.83 52.34 72.26C52.05 72.62 51.89 72.71 51.45 72.71C51.17 72.71 50.87 72.65 50.61 72.56C50.21 72.41 48.99 71.77 49.09 71.17C49.17 70.74 48.52 70.57 48.45 71Z" fill="#727272" fill-opacity="1.000000" fill-rule="nonzero"/>
        <path id="Vector" d="M52.32 66.62C53.15 66.83 53.99 66.47 54.69 66.02C55.2 65.69 55.88 65.09 55.82 64.4C55.77 63.82 55.2 63.54 54.7 63.48C53.82 63.37 52.97 63.76 52.26 64.24C51.9 64.48 52.25 65.06 52.6 64.82C52.97 64.56 53.37 64.34 53.8 64.23C54.21 64.12 55.38 63.95 55.02 64.8C54.71 65.56 53.19 66.14 52.48 65.96C52.06 65.86 51.9 66.51 52.32 66.62Z" fill="#727272" fill-opacity="1.000000" fill-rule="nonzero"/>
        <path id="Vector" d="M49.2 60.3C49.15 59.79 49.26 59.28 49.62 58.9C49.89 58.62 50.54 58.24 50.92 58.46C51.26 58.65 51.23 59.46 51.23 59.84C51.23 60.38 51.12 60.89 50.94 61.39C50.79 61.8 51.44 61.97 51.59 61.56C51.87 60.74 51.97 59.88 51.84 59.02C51.74 58.43 51.64 57.84 50.98 57.75C49.53 57.55 48.4 58.92 48.54 60.32C48.58 60.74 49.25 60.73 49.2 60.3Z" fill="#727272" fill-opacity="1.000000" fill-rule="nonzero"/>
        <path id="Vector" d="M43.01 62.56C42.49 61.9 42.05 60.71 42.22 59.86C42.33 59.34 42.45 59.19 42.97 59.14C43.5 59.09 43.63 59.24 44.01 59.56C44.4 59.87 44.78 60.2 45.16 60.51C45.49 60.79 45.95 60.3 45.62 60.03C44.68 59.24 43.17 57.43 41.97 58.81C41.04 59.88 41.67 61.94 42.44 62.92C42.7 63.26 43.28 62.91 43.01 62.56Z" fill="#727272" fill-opacity="1.000000" fill-rule="nonzero"/>
        <path id="Vector" d="M41.81 65.2C40.51 64.67 38.82 65.85 39.02 67.33C39.2 68.74 41.43 69.26 42.44 68.46C42.77 68.2 42.43 67.62 42.09 67.89C41.54 68.32 40.18 68.2 39.78 67.56C39.2 66.62 40.63 65.44 41.49 65.79C41.88 65.95 42.21 65.36 41.81 65.2Z" fill="#727272" fill-opacity="1.000000" fill-rule="nonzero"/>
    </g>
</svg>
