<svg width="34.299988" height="34.299927" viewBox="0 0 34.3 34.2999" fill="none" xmlns="http://www.w3.org/2000/svg" xmlns:xlink="http://www.w3.org/1999/xlink">
	<path id="Vector" d="M17.15 0C7.67 0 0 7.67 0 17.15C0 26.02 6.73 33.31 15.37 34.2C14.84 29.91 15.04 26.4 15.7 23.51C15.33 21.72 14.48 19.07 12.57 17.18C12.57 17.18 13.83 19.07 14.51 21.62C14.51 21.62 14.52 21.62 14.52 21.63C14.59 21.9 14.65 22.17 14.71 22.46C14.72 22.52 14.74 22.59 14.75 22.66C14.8 22.95 14.85 23.24 14.88 23.54C5.19 22.35 3.12 13.65 3.35 10.37C13.66 10.94 15.77 17.82 16.08 22.09C19.45 11.04 30.18 10.4 31.06 10.37C31.45 18.87 25.15 25.5 17.61 26.08C17.66 25.85 17.71 25.61 17.77 25.39C17.79 25.32 17.81 25.26 17.83 25.19C17.87 25.02 17.92 24.86 17.97 24.7C17.99 24.63 18.01 24.56 18.03 24.49C18.09 24.31 18.15 24.14 18.21 23.96C18.23 23.92 18.24 23.88 18.26 23.84C18.33 23.63 18.41 23.43 18.5 23.23C18.5 23.21 18.51 23.19 18.52 23.17C18.52 23.17 18.52 23.17 18.52 23.17C20.45 18.5 24.02 15.44 24.02 15.44C17.02 19.48 15.84 29.99 15.65 34.22C16.15 34.26 16.64 34.29 17.15 34.29C26.62 34.29 34.3 26.62 34.3 17.15C34.3 7.67 26.62 0 17.15 0Z" fill="#46A358" fill-opacity="1.000000" fill-rule="nonzero"/>
</svg>
