<svg width="20.000000" height="20.000000" viewBox="0 0 20 20" fill="none" xmlns="http://www.w3.org/2000/svg" xmlns:xlink="http://www.w3.org/1999/xlink">
	<rect id="Iconly/Curved/Calling" rx="-0.500000" width="19.000000" height="19.000000" transform="translate(0.500000 0.500000)" fill="#FFFFFF" fill-opacity="0"/>
	<path id="Stroke 1" d="M11.96 2.29C15.04 2.63 17.48 5.06 17.82 8.15" stroke="#46A358" stroke-opacity="1.000000" stroke-width="1.500000" stroke-linejoin="round" stroke-linecap="round"/>
	<path id="Stroke 3" d="M11.96 5.24C13.43 5.53 14.58 6.68 14.87 8.16" stroke="#46A358" stroke-opacity="1.000000" stroke-width="1.500000" stroke-linejoin="round" stroke-linecap="round"/>
	<path id="Stroke 5" d="M2.09 4.35C2.16 4.21 4.08 1.34 6.14 3.02C11.25 7.23 4.78 6.63 9.07 10.92C13.36 15.21 12.76 8.75 16.97 13.85C18.65 15.91 15.78 17.83 15.64 17.9C14.79 18.51 12.16 19.33 6.41 13.58C0.66 7.83 1.48 5.2 2.09 4.35Z" stroke="#46A358" stroke-opacity="1.000000" stroke-width="1.500000" stroke-linejoin="round"/>
</svg>
