<svg width="61.000000" height="90.000000" viewBox="0 0 61 90" fill="none" xmlns="http://www.w3.org/2000/svg"
     xmlns:xlink="http://www.w3.org/1999/xlink">
    <svg width="61" height="75" viewBox="0 0 61 90" fill="none" xmlns="http://www.w3.org/2000/svg"
         xmlns:xlink="http://www.w3.org/1999/xlink">

        <path id="Vector"
              d="M19.29 44.72C19.85 40.09 16.62 36.63 13.17 33.96C11.17 32.41 9.2 31.11 7.9 28.88C7.23 27.74 6.59 26.45 6.21 25.18C5.48 22.72 6.75 18.84 9.87 21.69C11.67 23.33 12.09 25.44 13.46 27.27C14.24 28.3 15.43 28.85 16.67 28.19C20.4 26.22 17.51 19.37 16.68 16.65C15.67 13.36 15.13 10.19 16.83 7.02C17.39 5.98 18.02 4.91 18.74 3.97C19.2 3.36 19.79 2.71 20.45 2.29C21.83 1.42 22.65 1.42 24.17 1.88C25.78 2.38 25.79 2.46 26.12 3.99C26.28 4.7 26.34 5.47 26.38 6.2C26.45 7.75 26.33 9.3 26.01 10.82C25.41 13.69 23.68 16.24 23.3 19.16C23.02 21.3 23.21 28.13 26.8 27.49C31.01 26.74 30.71 20.08 34.9 19.19C38.39 18.45 40.1 22.23 38.62 24.83C37.82 26.24 36.48 27.33 35.2 28.3C32.9 30.02 30.1 30.91 27.85 32.65C23.78 35.81 25.14 40.77 26.81 44.84C27.13 45.62 28.44 45.28 28.11 44.48C26.98 41.74 25.57 38.38 27.09 35.5C28.5 32.84 32.23 31.9 34.63 30.33C37.88 28.2 42.54 24.2 39.79 19.99C37.49 16.47 33.03 17.65 30.93 20.6C30.29 21.49 29.8 22.47 29.24 23.41C28.98 23.84 28.72 24.27 28.42 24.67C28.21 24.93 27.99 25.18 27.77 25.44C26.06 25.81 25.18 25.36 25.12 24.08C23.41 20.49 25.48 16.81 26.65 13.5C27.51 11.04 27.88 8.41 27.7 5.81C27.57 4.01 27.38 1.58 25.66 0.5C24.15 -0.45 21.83 0.1 20.35 0.83C18.14 1.94 16.78 4.27 15.67 6.35C12.79 11.7 15.69 16.41 16.76 21.79C16.9 22.5 17.26 24.07 17.02 24.87C16.29 25.53 15.56 26.18 14.82 26.84C14.4 26.31 14.09 25.73 13.87 25.1C13.44 24.17 13 23.3 12.38 22.47C11.41 21.17 9.57 19.02 7.68 19.13C5.86 19.23 4.79 21.14 4.59 22.72C4.3 25.07 5.58 27.57 6.73 29.56C9.93 35.08 18.86 37.11 17.94 44.73C17.84 45.57 19.19 45.57 19.29 44.72Z"
              fill="#46A358" fill-opacity="1.000000" fill-rule="nonzero"/>
        <path id="Vector"
              d="M30.98 22.56C31.95 17.69 30.11 13.24 29.73 8.44C29.5 5.56 30.74 0.97 34.68 2.28C37.62 3.25 38.73 6.7 38.53 9.46C38.39 11.48 37.4 17.4 41.35 16.85C44.73 16.38 46.47 10.82 48.11 8.47C49.52 6.45 52.63 3.5 55.36 4.32C59.69 5.63 56.92 10.75 54.92 12.76C51.56 16.15 47.98 19.15 45.02 22.93C43.3 25.12 41.81 28.72 45.63 29.71C47.09 30.08 48.5 29.58 49.82 28.99C50.89 28.51 51.9 27.93 53.03 27.62C55.1 27.04 57.49 27.49 56.13 30.02C52.93 35.95 45.61 31.58 40.89 34.06C36.89 36.17 35.95 40.84 36.33 44.94C36.41 45.78 37.77 45.79 37.68 44.94C37.42 42.08 37.65 39 39.65 36.73C42.24 33.81 45.69 34.88 49.12 34.81C52.62 34.74 57.12 33.07 57.85 29.22C58.64 24.99 53.76 25.81 51.26 26.83C50.16 27.28 49.12 27.98 47.97 28.31C47.05 28.57 45.61 28.71 44.89 27.86C44.19 27.03 44.75 25.64 45.18 24.94C46.77 22.36 49.19 20.01 51.35 17.89C54.32 14.97 59.39 11.86 58.95 7.09C58.62 3.44 55.2 2.11 52.05 3.47C50.15 4.3 48.59 5.6 47.35 7.23C45.74 9.36 44.88 12.29 42.95 14.17C42.26 14.84 41.58 16.28 40.02 14.87C39.33 14.24 39.54 12.57 39.61 11.71C39.71 10.59 39.95 9.49 39.92 8.36C39.86 6.44 39.21 4.5 37.96 3.01C35.29 -0.12 30.73 0.02 28.96 3.95C27.9 6.29 28.37 8.98 28.81 11.41C29.46 15.01 30.41 18.54 29.68 22.2C29.51 23.04 30.81 23.4 30.98 22.56Z"
              fill="#46A358" fill-opacity="1.000000" fill-rule="nonzero"/>
        <path id="Vector"
              d="M30.68 30.99C30.04 35.57 29 40.06 27.55 44.46C27.28 45.28 28.58 45.63 28.85 44.82C30.3 40.42 31.34 35.93 31.98 31.35C32.1 30.5 30.79 30.14 30.68 30.99Z"
              fill="#46A358" fill-opacity="1.000000" fill-rule="nonzero"/>
        <path id="Vector"
              d="M14.5 43.96C14.32 40.43 11.84 38.05 8.98 36.23C7.13 35.05 5.1 34.07 3.5 32.54C2.82 31.88 1.54 30.6 1.48 29.58C1.25 26.17 5.47 28.83 6.41 29.61C7.07 30.17 8.03 29.23 7.36 28.67C5.89 27.43 3.24 25.82 1.22 26.75C-0.41 27.5 -0.14 29.36 0.48 30.71C3.12 36.41 12.8 37.06 13.15 43.96C13.19 44.81 14.54 44.82 14.5 43.96Z"
              fill="#46A358" fill-opacity="1.000000" fill-rule="nonzero"/>
        <path id="Vector"
              d="M44.83 45.28C46.52 42.77 48.74 40.72 51.46 39.34C53.94 38.09 57.02 37.87 59.22 36.1C61.74 34.06 61.87 29.07 57.7 29.2C56.83 29.23 56.83 30.56 57.7 30.53C59.34 30.76 60.01 31.65 59.71 33.22C59.37 34.12 58.8 34.84 57.99 35.35C57 36.04 55.8 36.36 54.67 36.71C53.22 37.17 51.81 37.64 50.47 38.35C47.68 39.84 45.4 42.02 43.66 44.61C43.18 45.32 44.35 45.99 44.83 45.28Z"
              fill="#46A358" fill-opacity="1.000000" fill-rule="nonzero"/>
        <path id="Vector"
              d="M48.51 33.55C42.78 34.61 40.66 40.24 39.3 45.16C39.07 45.99 40.38 46.34 40.61 45.51C41.84 41.04 43.62 35.81 48.87 34.84C49.72 34.67 49.36 33.39 48.51 33.55Z"
              fill="#46A358" fill-opacity="1.000000" fill-rule="nonzero"/>
        <path id="Vector"
              d="M18.29 13.25C17.61 10.59 18.45 7.67 20.63 5.88C21.06 5.51 21.56 5.22 22.11 5.02C23.61 5.33 24.31 6.12 24.2 7.39C24.23 8.13 24.08 8.86 23.91 9.57C23.55 11 22.93 12.37 22.46 13.77C21.27 17.39 19.55 23.31 22.78 26.39C23.09 26.69 23.57 26.22 23.26 25.92C20.42 23.22 21.88 18.03 22.84 14.8C23.68 12 25.96 8.28 24.42 5.34C23.22 3.04 20.47 4.91 19.31 6.25C17.58 8.24 17 10.91 17.63 13.43C17.74 13.85 18.39 13.67 18.29 13.25Z"
              fill="#46A358" fill-opacity="1.000000" fill-rule="nonzero"/>
        <path id="Vector"
              d="M32.58 24.05C32.97 23.2 33.75 22 34.8 21.86C36.4 21.64 37.23 23.62 36.37 24.93C35.57 26.17 34.03 27.03 32.7 27.56C30.5 28.43 29.02 29.64 27.42 31.37C27.12 31.69 27.6 32.16 27.9 31.84C28.86 30.79 29.86 29.7 31.12 28.97C32.12 28.39 33.29 28.16 34.3 27.59C35.53 26.89 37.53 25.39 37.67 23.86C37.79 22.64 36.48 21.22 35.25 21.14C33.77 21.05 32.54 22.54 32 23.71C31.82 24.1 32.4 24.44 32.58 24.05Z"
              fill="#46A358" fill-opacity="1.000000" fill-rule="nonzero"/>
        <path id="Vector"
              d="M7.29 24.82C7.44 23.65 7.89 23.22 8.63 23.54C8.89 23.54 9.11 23.63 9.29 23.82C9.64 24.05 9.88 24.39 10.09 24.75C10.47 25.39 10.64 26.15 10.92 26.83C11.28 27.71 11.75 28.43 12.55 28.95C12.92 29.19 13.26 28.61 12.9 28.37C10.91 27.07 11.47 23.7 8.99 22.89C7.5 22.4 6 23.67 6.71 25.15C6.9 25.55 7.48 25.21 7.29 24.82Z"
              fill="#46A358" fill-opacity="1.000000" fill-rule="nonzero"/>
        <path id="Vector"
              d="M31.53 7.57C31.17 5.65 33.22 4.12 34.79 5.52C35.66 6.29 35.99 7.72 36 8.83C36.01 10.33 35.31 11.68 35.61 13.19C35.69 13.61 36.34 13.44 36.26 13.01C35.89 11.12 36.96 9.3 36.48 7.33C36.19 6.15 35.6 4.84 34.37 4.39C32.14 3.6 30.5 5.72 30.87 7.74C30.95 8.16 31.6 7.99 31.53 7.57Z"
              fill="#46A358" fill-opacity="1.000000" fill-rule="nonzero"/>
        <path id="Vector"
              d="M31.19 11.96C32.29 14.25 32.83 16.25 32.75 18.78C32.73 19.21 33.41 19.2 33.42 18.78C33.51 16.12 32.92 14.01 31.77 11.63C31.58 11.24 31 11.58 31.19 11.96Z"
              fill="#46A358" fill-opacity="1.000000" fill-rule="nonzero"/>
        <path id="Vector"
              d="M48.73 10.06C49.38 8.59 50.62 7.66 52.05 6.96C52.46 6.75 52.88 6.57 53.32 6.43C55.23 7.07 55.71 7.96 54.77 9.1C54.32 9.8 53.66 10.42 53.1 11.04C50.95 13.37 48.64 15.53 46.19 17.55C45.86 17.82 46.33 18.29 46.67 18.02C48.88 16.2 50.99 14.26 52.95 12.18C54.13 10.93 56.4 9.08 55.91 7.1C54.92 3.19 48.97 7.85 48.14 9.72C47.97 10.11 48.56 10.45 48.73 10.06Z"
              fill="#46A358" fill-opacity="1.000000" fill-rule="nonzero"/>
        <path id="Vector"
              d="M44.91 19.97C42.75 21.54 41.44 23.82 41.19 26.44C41.15 26.87 41.82 26.87 41.86 26.44C42.09 24.07 43.3 21.96 45.25 20.54C45.6 20.3 45.26 19.71 44.91 19.97Z"
              fill="#46A358" fill-opacity="1.000000" fill-rule="nonzero"/>
        <path id="Vector"
              d="M49.19 31.09C49.63 30.83 50.07 30.56 50.54 30.33C50.89 30.14 51.26 29.99 51.64 29.89C52.37 29.59 52.61 30.15 52.37 31.56C51.89 32.48 49.3 32.52 48.5 32.47C46.5 32.36 44.61 31.81 42.63 32.41C42.21 32.54 42.39 33.18 42.81 33.06C45.18 32.33 47.5 33.39 49.9 33.12C51.2 32.98 53.04 32.39 53.69 31.14C54.05 30.45 53.97 29.53 53.18 29.15C51.88 28.54 49.86 29.91 48.84 30.52C48.47 30.74 48.81 31.32 49.19 31.09Z"
              fill="#46A358" fill-opacity="1.000000" fill-rule="nonzero"/>
        <path id="Vector"
              d="M39.13 33.57C35.61 36.39 34.33 40.65 33.98 44.96C33.94 45.38 34.62 45.38 34.65 44.96C35 40.82 36.23 36.75 39.61 34.04C39.95 33.77 39.47 33.31 39.13 33.57Z"
              fill="#46A358" fill-opacity="1.000000" fill-rule="nonzero"/>
        <path id="Vector"
              d="M23.99 34.71C22.95 36.49 22.98 38.44 23.21 40.44C23.4 42.12 23.62 43.77 24.8 45.08C25.09 45.4 25.57 44.93 25.28 44.61C24.13 43.33 23.98 41.55 23.83 39.91C23.67 38.21 23.69 36.56 24.58 35.04C24.8 34.67 24.22 34.34 23.99 34.71Z"
              fill="#46A358" fill-opacity="1.000000" fill-rule="nonzero"/>
        <path id="Vector"
              d="M5.34 30.32C3.38 30.34 4.15 32.37 5.2 33.1C6.51 34.01 8 34.62 9.38 35.39C11.02 36.3 11.68 37.83 12.94 39.1C13.24 39.41 13.72 38.94 13.42 38.63C12.17 37.37 11.56 35.85 9.95 34.94C9.14 34.48 8.29 34.1 7.47 33.66C7.05 33.43 6.63 33.2 6.22 32.95C6.06 32.85 5.89 32.75 5.73 32.65C4.92 32.35 4.79 31.8 5.34 30.99C5.77 30.98 5.77 30.31 5.34 30.32Z"
              fill="#46A358" fill-opacity="1.000000" fill-rule="nonzero"/>
        <path id="Vector"
              d="M56.23 33.39C56.25 34.28 55.84 34.76 54.98 34.84C54.56 35.01 54.15 35.17 53.74 35.33C53.12 35.58 52.5 35.82 51.88 36.07C50.44 36.64 48.99 37.21 47.55 37.78C47.14 37.93 47.32 38.58 47.73 38.42C49.38 37.77 51.03 37.12 52.68 36.47C53.9 35.98 55.46 35.64 56.55 34.88C57.49 34.22 57.52 32.86 56.23 32.72C55.8 32.67 55.8 33.34 56.23 33.39Z"
              fill="#46A358" fill-opacity="1.000000" fill-rule="nonzero"/>
        <path id="Vector"
              d="M45.99 38.7C44.18 40.39 42.75 42.38 41.74 44.62C41.57 45.01 42.15 45.35 42.33 44.96C43.32 42.77 44.7 40.83 46.48 39.18C46.79 38.88 46.31 38.41 45.99 38.7Z"
              fill="#46A358" fill-opacity="1.000000" fill-rule="nonzero"/>
        <path id="Vector"
              d="M14.54 41.62C15.06 42.38 15.4 43.19 15.55 44.09C15.63 44.51 16.28 44.33 16.21 43.91C16.04 42.96 15.68 42.08 15.13 41.28C14.89 40.93 14.3 41.26 14.54 41.62Z"
              fill="#46A358" fill-opacity="1.000000" fill-rule="nonzero"/>
    </svg>
    <svg width="58.998993" height="93" viewBox="0 0 54.999 20" fill="none" xmlns="http://www.w3.org/2000/svg"
         xmlns:xlink="http://www.w3.org/1999/xlink">

        <path id="Vector"
              d="M9.12 1.35C21.7 3.02 34.39 3.28 47.02 2.13C47.88 2.06 47.88 0.7 47.02 0.78C34.39 1.93 21.7 1.67 9.12 0C8.27 -0.11 8.28 1.25 9.12 1.35Z"
              fill="#727272" fill-opacity="1.000000" fill-rule="nonzero"/>
        <path id="Vector"
              d="M12.03 47.03C17.46 47.72 22.93 48.06 28.41 47.98C33.23 47.92 38.92 48.13 43.44 46.22C44.23 45.89 43.88 44.58 43.08 44.92C38.45 46.87 32.5 46.61 27.54 46.64C22.35 46.68 17.17 46.33 12.02 45.68C11.17 45.57 11.17 46.92 12.03 47.03Z"
              fill="#727272" fill-opacity="1.000000" fill-rule="nonzero"/>
        <path id="Vector"
              d="M8.6 0.31C2.33 6.16 -0.6 14.89 0.09 23.4C0.45 27.79 1.69 32.06 3.55 36.05C5.24 39.68 7.74 44.89 11.49 46.78C12.26 47.17 12.94 46 12.16 45.61C8.68 43.85 6.3 38.79 4.71 35.37C2.85 31.38 1.64 27.05 1.39 22.64C0.94 14.7 3.71 6.72 9.56 1.27C10.19 0.68 9.24 -0.28 8.6 0.31Z"
              fill="#727272" fill-opacity="1.000000" fill-rule="nonzero"/>
        <path id="Vector"
              d="M46.54 1.95C53.16 6.12 53.78 15.11 53.62 22.2C53.44 30.09 52.47 42.61 43.08 44.92C42.24 45.13 42.6 46.43 43.44 46.22C53.24 43.81 54.65 31.39 54.95 23.03C55.22 15.21 54.53 5.38 47.22 0.78C46.49 0.32 45.81 1.49 46.54 1.95Z"
              fill="#727272" fill-opacity="1.000000" fill-rule="nonzero"/>
        <path id="Vector"
              d="M13.57 1.36C8.64 6.71 6.46 15.63 7.29 22.78C7.78 26.94 9.08 31.07 10.06 35.13C11.04 39.21 12.04 43.25 14.26 46.84C14.72 47.58 15.88 46.9 15.42 46.16C13.34 42.79 12.37 39.02 11.45 35.2C10.56 31.52 9.53 27.84 8.84 24.12C7.54 17.03 9.58 7.67 14.52 2.32C15.11 1.68 14.16 0.72 13.57 1.36Z"
              fill="#727272" fill-opacity="1.000000" fill-rule="nonzero"/>
        <path id="Vector"
              d="M20.24 1.93C16.56 8.44 14.63 15.83 14.73 23.32C14.77 26.92 15.29 30.52 16.26 33.99C17.48 38.28 19.33 42.36 20.13 46.77C20.29 47.63 21.59 47.26 21.43 46.41C20.72 42.55 19.23 38.95 18.04 35.23C16.89 31.61 16.2 27.88 16.08 24.08C15.85 16.57 17.71 9.14 21.4 2.61C21.83 1.85 20.67 1.17 20.24 1.93Z"
              fill="#727272" fill-opacity="1.000000" fill-rule="nonzero"/>
        <path id="Vector"
              d="M24.2 3.22C25.48 10.73 23.93 18.26 24.06 25.8C24.11 29.24 24.88 32.45 25.33 35.84C25.8 39.36 25 42.98 24.56 46.47C24.46 47.33 25.8 47.33 25.91 46.47C26.35 42.95 27.14 39.3 26.68 35.75C26.2 32.11 25.4 28.67 25.39 24.97C25.38 17.58 26.75 10.23 25.5 2.86C25.35 2.01 24.05 2.37 24.2 3.22Z"
              fill="#727272" fill-opacity="1.000000" fill-rule="nonzero"/>
        <path id="Vector"
              d="M29.24 2.59C31.61 9.38 31.89 16.54 32.13 23.66C32.39 31.39 32.01 39 30.57 46.61C30.41 47.46 31.71 47.83 31.87 46.97C33.32 39.24 33.74 31.51 33.48 23.66C33.24 16.42 32.94 9.13 30.54 2.23C30.26 1.42 28.96 1.77 29.24 2.59Z"
              fill="#727272" fill-opacity="1.000000" fill-rule="nonzero"/>
        <path id="Vector"
              d="M34.9 2.63C35.4 4.15 36.48 5.17 37.3 6.52C38.24 8.05 38.76 9.78 39.04 11.55C39.64 15.41 39.36 19.45 39.35 23.34C39.34 27.57 39.66 32.05 38.57 36.19C37.61 39.81 35.41 42.94 34.67 46.65C34.5 47.5 35.8 47.86 35.97 47.01C36.76 43.04 39.2 39.68 40.06 35.73C40.94 31.7 40.68 27.45 40.69 23.34C40.7 19.55 40.93 15.66 40.43 11.89C40.21 10.22 39.84 8.57 39.12 7.05C38.32 5.35 36.78 4.05 36.2 2.27C35.93 1.44 34.63 1.8 34.9 2.63Z"
              fill="#727272" fill-opacity="1.000000" fill-rule="nonzero"/>
        <path id="Vector"
              d="M41.45 2.41C44.12 4.94 45.4 8.97 46.37 12.45C47.37 16.07 47.04 19.94 46.81 23.65C46.36 31.18 45.1 38.7 41.5 45.41C41.09 46.18 42.25 46.86 42.66 46.09C46.49 38.94 47.77 30.89 48.2 22.87C48.41 18.83 48.59 14.88 47.33 10.99C46.23 7.62 45.03 3.95 42.4 1.45C41.77 0.86 40.81 1.82 41.45 2.41Z"
              fill="#727272" fill-opacity="1.000000" fill-rule="nonzero"/>
        <path id="Vector"
              d="M13.47 5.79C13.33 6.15 13.17 6.5 13.01 6.85C12.8 7.29 13.04 7.89 13.59 7.87C13.98 7.86 14.29 7.68 14.57 7.41C14.66 7.33 14.75 7.24 14.83 7.15C14.95 7.04 14.8 7.22 14.88 7.12C14.86 7.14 14.77 7.13 14.86 7.14C14.64 6.86 14.42 6.57 14.21 6.29C14.15 6.59 14.08 6.89 14.03 7.2C13.95 7.55 14.13 7.93 14.5 8.03C14.83 8.12 15.25 7.92 15.33 7.56C15.38 7.26 15.45 6.95 15.51 6.65C15.6 6.19 15.31 5.84 14.86 5.79C14.48 5.75 14.15 5.95 13.88 6.2C13.79 6.28 13.71 6.37 13.61 6.46C13.58 6.48 13.55 6.51 13.52 6.54C13.54 6.53 13.55 6.52 13.56 6.5C13.5 6.54 13.5 6.54 13.57 6.51C13.5 6.53 13.5 6.53 13.59 6.51C13.78 6.85 13.97 7.19 14.17 7.53C14.38 7.08 14.58 6.62 14.76 6.16C14.89 5.81 14.62 5.41 14.29 5.32C13.91 5.22 13.6 5.45 13.47 5.79Z"
              fill="#727272" fill-opacity="1.000000" fill-rule="nonzero"/>
        <path id="Vector"
              d="M10.13 13.89C10.07 14.27 10.01 14.64 9.95 15.02C9.9 15.32 9.98 15.62 10.25 15.78C10.5 15.93 10.87 15.9 11.07 15.68C11.2 15.53 11.33 15.38 11.46 15.23C11.55 15.13 11.67 14.95 11.77 14.89C11.66 14.92 11.55 14.96 11.43 14.98C11.45 14.98 11.48 14.98 11.5 14.97C11.39 14.94 11.28 14.91 11.16 14.88C11.18 14.9 11.2 14.91 11.21 14.92C11.1 14.73 10.99 14.54 10.88 14.34C10.92 14.73 10.81 15.16 10.77 15.55C10.7 16.11 11.37 16.32 11.78 16.14C12.31 15.89 12.66 15.43 12.85 14.89C12.47 14.99 12.1 15.09 11.73 15.19C11.71 15.1 11.7 15.01 11.69 14.93C11.47 15.77 12.77 16.13 12.98 15.29C13.08 14.91 12.99 14.49 12.68 14.23C12.27 13.9 11.73 14.02 11.55 14.53C11.47 14.75 11.3 14.87 11.1 14.97C11.43 15.16 11.77 15.36 12.11 15.56C12.18 14.95 12.5 13.88 11.68 13.65C10.98 13.45 10.49 14.28 10.12 14.72C10.49 14.94 10.86 15.16 11.24 15.38C11.3 15 11.37 14.62 11.43 14.25C11.49 13.89 11.34 13.52 10.96 13.41C10.64 13.33 10.19 13.53 10.13 13.89Z"
              fill="#727272" fill-opacity="1.000000" fill-rule="nonzero"/>
        <path id="Vector"
              d="M9.56 22.03C9.6 22.57 9.65 23.1 9.69 23.63C9.76 24.38 10.77 24.55 11.02 23.81C11.15 23.39 11.34 23.02 11.58 22.65C11.17 22.59 10.76 22.54 10.35 22.48C10.51 22.88 10.61 23.28 10.67 23.7C10.74 24.18 11.32 24.26 11.66 24.11C11.83 24.03 11.97 23.88 12.06 23.72C12.1 23.65 12.13 23.56 12.16 23.49C12.17 23.44 12.18 23.4 12.19 23.36C12.21 23.3 12.21 23.3 12.17 23.38C12.08 23.44 11.98 23.49 11.88 23.55C11.9 23.54 11.93 23.54 11.95 23.53C11.83 23.53 11.71 23.53 11.59 23.53C11.58 23.53 11.57 23.52 11.57 23.51C11.49 23.43 11.41 23.35 11.33 23.27C11.34 23.29 11.35 23.31 11.36 23.32C11.34 23.15 11.32 22.98 11.3 22.8C11.29 22.82 11.29 22.85 11.29 22.86C11.24 23.22 11.37 23.59 11.76 23.7C12.07 23.78 12.54 23.59 12.59 23.22C12.63 22.93 12.6 22.66 12.39 22.44C12.21 22.26 11.94 22.18 11.69 22.21C11.43 22.24 11.2 22.39 11.06 22.61C11 22.71 10.92 22.84 10.91 22.94C10.91 23.1 10.84 22.99 10.99 22.93C11.31 23.06 11.64 23.2 11.97 23.33C11.91 22.91 11.81 22.51 11.65 22.11C11.43 21.58 10.75 21.43 10.42 21.95C10.12 22.42 9.9 22.91 9.73 23.43C10.17 23.49 10.6 23.55 11.05 23.61C11 23.08 10.95 22.55 10.91 22.02C10.88 21.65 10.62 21.34 10.24 21.34C9.89 21.36 9.52 21.67 9.56 22.03Z"
              fill="#727272" fill-opacity="1.000000" fill-rule="nonzero"/>
        <path id="Vector"
              d="M11.17 31.57C11.22 32.35 11.61 33.03 12.29 33.43C12.73 33.69 13.29 33.36 13.3 32.84C13.3 32.45 13.39 32.08 13.55 31.72C13.17 31.82 12.8 31.92 12.42 32.02C12.6 32.24 12.8 32.44 13.02 32.62C13.38 32.93 14.03 32.87 14.15 32.33C14.17 32.2 14.21 32.1 14.25 31.99C13.87 32.09 13.5 32.19 13.12 32.29C13.16 32.26 13.18 32.29 13.18 32.36C13.32 32.7 13.82 32.77 14.1 32.61C14.44 32.4 14.48 32.02 14.34 31.68C14.28 31.55 14.19 31.42 14.07 31.33C13.65 31 13.14 31.12 12.95 31.63C12.9 31.74 12.87 31.85 12.85 31.97C13.22 31.87 13.6 31.77 13.97 31.67C13.75 31.48 13.56 31.28 13.37 31.06C13.01 30.62 12.42 30.95 12.25 31.36C12.05 31.83 11.96 32.33 11.95 32.84C12.29 32.65 12.62 32.46 12.96 32.26C12.7 32.11 12.53 31.88 12.51 31.57C12.47 30.71 11.12 30.7 11.17 31.57Z"
              fill="#727272" fill-opacity="1.000000" fill-rule="nonzero"/>
        <path id="Vector"
              d="M13.95 40.85C14.1 41.25 14.29 41.63 14.55 41.98C14.95 42.53 15.74 42.33 15.8 41.64C15.81 41.6 15.88 41.1 15.85 41.08C15.66 41.2 15.47 41.32 15.28 41.44C15.32 41.51 15.36 41.56 15.41 41.62C15.58 41.84 15.79 42.02 16.07 42.1C16.28 42.15 16.52 42.13 16.71 42.01C16.83 41.93 16.91 41.83 16.98 41.7C17 41.65 17.02 41.6 17.04 41.54C17.15 41.22 16.95 41.16 16.46 41.38C16.73 42.2 18.03 41.85 17.75 41.02C17.56 40.45 17.02 40.08 16.42 40.31C16.18 40.4 15.97 40.58 15.85 40.82C15.81 40.89 15.68 41.2 15.73 41.29C15.99 41.14 16.25 40.99 16.51 40.84C16.47 40.79 16.43 40.75 16.4 40.71C16.19 40.27 15.56 40.02 15.12 40.18C14.48 40.41 14.51 41.09 14.46 41.64C14.88 41.53 15.29 41.42 15.72 41.3C15.53 41.05 15.37 40.78 15.25 40.49C14.93 39.69 13.63 40.04 13.95 40.85Z"
              fill="#727272" fill-opacity="1.000000" fill-rule="nonzero"/>
        <path id="Vector"
              d="M21.13 5.98C20.65 6.34 20.25 6.78 19.98 7.33C19.64 8.05 20.44 8.62 21.04 8.15C21.18 8.04 21.33 7.93 21.47 7.81C21.53 7.77 21.59 7.72 21.66 7.67C21.69 7.64 21.72 7.62 21.76 7.59C21.87 7.51 21.81 7.52 21.58 7.63C21.47 7.59 21.36 7.56 21.24 7.54C21.25 7.54 21.27 7.55 21.28 7.56C21.2 7.48 21.12 7.4 21.04 7.32C21.03 7.26 21.01 7.21 20.99 7.15C21 7.08 21 7.08 20.98 7.13C20.95 7.15 20.94 7.31 20.94 7.33C20.91 7.54 20.93 7.74 21.04 7.93C21.14 8.1 21.31 8.25 21.51 8.3C21.59 8.32 21.69 8.33 21.77 8.33C21.85 8.33 21.93 8.32 22 8.29C22.09 8.27 22.06 8.26 21.9 8.27C21.8 8.21 21.7 8.15 21.6 8.09C21.62 8.1 21.63 8.12 21.64 8.13C21.59 8.03 21.53 7.93 21.47 7.83C21.47 7.85 21.48 7.86 21.48 7.88C21.51 7.7 21.53 7.53 21.55 7.35C21.54 7.37 21.54 7.38 21.53 7.4C21.12 8.16 22.28 8.85 22.69 8.08C22.86 7.75 22.82 7.39 22.55 7.13C22.41 6.99 22.21 6.91 22.02 6.91C21.9 6.9 21.77 6.98 21.68 6.97C21.79 7 21.9 7.03 22.02 7.06C22 7.04 21.98 7.03 21.97 7.02C22.05 7.1 22.13 7.18 22.21 7.26C22.2 7.25 22.19 7.23 22.18 7.21C22.21 7.32 22.24 7.44 22.27 7.55C22.26 7.47 22.28 7.51 22.31 7.39C22.34 7.23 22.35 7.06 22.31 6.89C22.24 6.57 21.99 6.34 21.67 6.28C21.33 6.21 21.11 6.39 20.85 6.59C20.59 6.79 20.34 6.99 20.08 7.19C20.44 7.46 20.79 7.73 21.14 8.01C21.3 7.67 21.51 7.37 21.81 7.14C22.1 6.93 22.25 6.56 22.05 6.22C21.89 5.93 21.43 5.76 21.13 5.98Z"
              fill="#727272" fill-opacity="1.000000" fill-rule="nonzero"/>
        <path id="Vector"
              d="M18.5 13.59C18.39 14.13 18.28 14.67 18.17 15.22C18.03 15.91 18.77 16.3 19.29 15.88C19.45 15.75 19.58 15.59 19.68 15.42C19.75 15.3 19.83 15.06 19.86 15.01C19.78 15.09 19.7 15.17 19.62 15.25C19.64 15.24 19.66 15.22 19.68 15.2C19.57 15.24 19.46 15.27 19.34 15.29C19.37 15.29 19.4 15.29 19.42 15.28C19.31 15.25 19.2 15.22 19.08 15.19C18.98 15.14 18.97 14.97 19 15.2C19.01 15.26 19.03 15.31 19.04 15.36C19.11 15.56 19.22 15.74 19.39 15.87C19.55 15.99 19.73 16.05 19.93 16.05C20.05 16.04 20.16 16.01 20.27 15.96C20.33 15.93 20.37 15.9 20.42 15.86C20.54 15.78 20.51 15.79 20.33 15.87C20.22 15.83 20.11 15.8 19.99 15.78C20.01 15.79 20.01 15.79 20.03 15.83C20.31 16.65 21.61 16.29 21.32 15.47C21.2 15.11 21.01 14.78 20.67 14.61C20.49 14.51 20.26 14.49 20.07 14.53C19.87 14.58 19.75 14.71 19.58 14.79C19.69 14.76 19.81 14.73 19.92 14.7C19.9 14.7 19.87 14.7 19.85 14.7C19.96 14.73 20.07 14.76 20.19 14.79C20.31 15 20.35 15.03 20.3 14.88C20.29 14.82 20.28 14.77 20.27 14.71C20.24 14.59 20.19 14.47 20.13 14.37C19.96 14.11 19.69 13.94 19.38 13.94C19.07 13.95 18.8 14.12 18.65 14.39C18.53 14.61 18.54 14.75 18.33 14.92C18.71 15.14 19.08 15.36 19.46 15.58C19.57 15.04 19.68 14.5 19.79 13.95C19.97 13.1 18.68 12.74 18.5 13.59Z"
              fill="#727272" fill-opacity="1.000000" fill-rule="nonzero"/>
        <path id="Vector"
              d="M17.98 20.5C17.84 21.23 17.75 21.96 17.73 22.69C17.71 23.21 18.31 23.53 18.74 23.28C18.94 23.16 19.08 23 19.19 22.8C19.23 22.72 19.35 22.55 19.33 22.48C19.32 22.47 19.28 22.53 19.3 22.52C19.19 22.55 19.07 22.58 18.96 22.61C18.95 22.62 18.94 22.62 18.93 22.62C18.85 22.54 18.77 22.46 18.68 22.38C18.76 22.48 18.75 22.47 18.76 22.57C18.81 23.12 19.47 23.49 19.91 23.05C19.96 22.99 20.01 22.94 20.06 22.9C19.97 22.94 19.87 22.93 19.77 22.88C19.72 22.78 19.66 22.68 19.6 22.58C19.61 22.61 19.62 22.63 19.63 22.66C19.76 23 20.09 23.24 20.46 23.13C20.79 23.04 21.06 22.65 20.93 22.3C20.58 21.34 19.56 21.47 18.96 22.09C19.34 22.25 19.72 22.41 20.11 22.57C20.05 21.92 19.73 21.21 18.96 21.26C18.64 21.28 18.37 21.46 18.2 21.73C18.14 21.82 18.1 21.93 18.06 22.03C18.01 22.15 17.92 22.19 18.06 22.11C18.4 22.3 18.73 22.49 19.07 22.69C19.09 22.07 19.16 21.47 19.28 20.86C19.44 20.01 18.15 19.65 17.98 20.5Z"
              fill="#727272" fill-opacity="1.000000" fill-rule="nonzero"/>
        <path id="Vector"
              d="M18.65 28.22C18.8 28.83 18.99 29.42 19.2 30C19.38 30.47 19.94 30.67 20.33 30.3C20.5 30.13 20.61 29.94 20.67 29.7C20.69 29.61 20.71 29.5 20.72 29.4C20.73 29.11 20.7 29.35 20.72 29.34C20.61 29.37 20.5 29.4 20.38 29.43C20.42 29.43 20.44 29.42 20.47 29.42C20.36 29.39 20.25 29.36 20.13 29.33C20.04 29.29 20.07 29.25 20.14 29.38C20.18 29.44 20.21 29.5 20.25 29.55C20.39 29.73 20.56 29.86 20.79 29.89C20.99 29.91 21.19 29.86 21.36 29.75C21.45 29.68 21.54 29.6 21.6 29.5C21.63 29.45 21.65 29.4 21.68 29.34C21.77 29.17 21.69 29.21 21.45 29.48C21.33 29.48 21.21 29.48 21.09 29.48C21.03 29.44 20.98 29.39 20.93 29.34C20.9 29.23 20.87 29.12 20.84 29C20.84 29.03 20.84 29.05 20.84 29.08C20.83 29.95 22.17 29.95 22.19 29.08C22.2 28.62 21.88 28.27 21.45 28.18C21.21 28.13 20.98 28.18 20.79 28.32C20.69 28.39 20.62 28.46 20.55 28.56C20.54 28.58 20.53 28.62 20.51 28.64C20.39 28.87 20.42 28.86 20.61 28.63C20.72 28.6 20.83 28.57 20.95 28.54C20.93 28.54 20.9 28.54 20.88 28.55C20.99 28.58 21.11 28.61 21.22 28.64C21.42 28.73 21.32 28.7 21.24 28.58C21.19 28.48 21.12 28.38 21.04 28.31C20.78 28.08 20.45 28.02 20.13 28.13C19.87 28.22 19.68 28.42 19.55 28.65C19.48 28.78 19.44 28.91 19.42 29.06C19.4 29.12 19.42 29.3 19.38 29.34C19.75 29.44 20.12 29.54 20.5 29.64C20.29 29.06 20.1 28.46 19.95 27.86C19.73 27.02 18.43 27.38 18.65 28.22Z"
              fill="#727272" fill-opacity="1.000000" fill-rule="nonzero"/>
        <path id="Vector"
              d="M19.33 34.68C19.57 35.4 19.88 36.09 20.26 36.74C20.53 37.2 21.14 37.15 21.42 36.74C21.5 36.63 21.55 36.51 21.59 36.38C21.59 36.34 21.59 36.3 21.6 36.26C21.68 36 21.61 36.01 21.41 36.29C21.29 36.29 21.17 36.29 21.05 36.29C20.86 36.24 20.94 36.25 21.04 36.36C21.11 36.43 21.2 36.51 21.3 36.57C21.49 36.68 21.72 36.72 21.94 36.7C22.44 36.66 22.79 36.33 22.95 35.87C23.25 35.06 21.95 34.7 21.66 35.51C21.74 35.29 21.95 35.41 21.92 35.31C21.89 35.23 21.73 35.13 21.66 35.09C21.44 34.96 21.18 34.93 20.94 35.01C20.72 35.09 20.55 35.25 20.43 35.46C20.33 35.64 20.36 35.91 20.25 36.06C20.64 36.06 21.03 36.06 21.42 36.06C21.09 35.5 20.82 34.94 20.62 34.33C20.35 33.51 19.05 33.86 19.33 34.68Z"
              fill="#727272" fill-opacity="1.000000" fill-rule="nonzero"/>
        <path id="Vector"
              d="M21.1 42.4C21.1 42.77 21.16 43.15 21.27 43.5C21.36 43.75 21.56 43.94 21.83 43.98C22.08 44.01 22.39 43.9 22.5 43.66C22.58 43.49 22.65 43.33 22.73 43.17C22.77 43.1 22.8 43.02 22.83 42.95C22.85 42.91 22.87 42.87 22.89 42.84C22.79 42.89 22.69 42.95 22.59 43.01C22.6 43.01 22.62 43 22.64 42.99C22.51 42.99 22.4 42.99 22.28 42.99C22.25 42.98 22.23 42.97 22.2 42.96C22.12 42.88 22.04 42.8 21.96 42.72C21.9 42.61 21.96 42.7 21.98 42.78C22.01 42.85 22.03 42.92 22.06 42.99C22.11 43.13 22.16 43.27 22.2 43.41C22.32 43.76 22.66 43.98 23.03 43.89C23.36 43.8 23.62 43.4 23.5 43.05C23.31 42.49 23.15 41.57 22.37 41.68C21.76 41.76 21.56 42.5 21.33 42.97C21.74 43.03 22.16 43.08 22.56 43.14C22.48 42.87 22.44 42.65 22.43 42.39C22.43 42.04 22.13 41.7 21.76 41.72C21.41 41.74 21.09 42.02 21.1 42.4Z"
              fill="#727272" fill-opacity="1.000000" fill-rule="nonzero"/>
        <path id="Vector"
              d="M27.28 43.22C27.24 43.52 27.2 43.84 27.17 44.14C27.13 44.43 27.4 44.72 27.66 44.8C27.97 44.88 28.25 44.73 28.42 44.49C28.54 44.31 28.66 44.14 28.78 43.96C28.84 43.88 28.89 43.8 28.95 43.72C28.97 43.69 28.99 43.66 29.02 43.63C29.11 43.49 29.1 43.5 28.98 43.66C28.87 43.69 28.76 43.72 28.64 43.75C28.66 43.75 28.68 43.75 28.7 43.75C28.59 43.71 28.48 43.68 28.36 43.66C28.23 43.42 28.18 43.38 28.23 43.52C28.24 43.57 28.25 43.63 28.26 43.69C28.28 43.8 28.31 43.91 28.33 44.02C28.38 44.26 28.41 44.53 28.53 44.74C28.64 44.94 28.84 45.11 29.06 45.17C29.41 45.27 29.69 45.09 29.89 44.82C30.11 44.53 29.93 44.07 29.65 43.9C29.3 43.7 28.95 43.85 28.73 44.14C28.72 44.16 28.71 44.17 28.7 44.18C28.89 44.07 29.09 43.95 29.28 43.85C29.27 43.85 29.26 43.85 29.24 43.85C29.36 43.88 29.47 43.91 29.59 43.94C29.7 44 29.77 44.33 29.71 43.99C29.69 43.9 29.67 43.81 29.65 43.71C29.61 43.55 29.58 43.38 29.54 43.21C29.46 42.86 29.25 42.52 28.89 42.42C28.48 42.3 28.15 42.54 27.93 42.84C27.7 43.16 27.48 43.48 27.26 43.79C27.68 43.9 28.1 44.02 28.52 44.13C28.55 43.83 28.59 43.52 28.63 43.21C28.67 42.84 28.28 42.53 27.95 42.53C27.55 42.54 27.32 42.86 27.28 43.22Z"
              fill="#727272" fill-opacity="1.000000" fill-rule="nonzero"/>
        <path id="Vector"
              d="M27.92 30.87C27.76 31.59 27.67 32.33 27.69 33.07C27.7 33.71 28.63 34.04 28.94 33.41C29.08 33.14 29.21 32.88 29.35 32.61C29.45 32.41 29.52 32.16 29.7 32.02C29.6 32.08 29.5 32.14 29.4 32.2C29.4 32.19 29.4 32.19 29.41 32.18C29.19 32.02 28.98 31.85 28.76 31.69C28.84 32.01 28.93 32.33 29.01 32.65C29.12 33.05 29.63 33.29 30 33.05C30.06 33.01 30.12 32.97 30.19 32.93C30.9 32.45 30.23 31.28 29.51 31.76C29.45 31.8 29.38 31.84 29.32 31.88C29.65 32.02 29.98 32.15 30.31 32.29C30.22 31.97 30.14 31.65 30.05 31.33C29.98 31.05 29.7 30.83 29.4 30.83C28.46 30.85 28.13 32.03 27.78 32.74C28.2 32.85 28.62 32.96 29.04 33.08C29.03 32.45 29.08 31.85 29.22 31.24C29.41 30.38 28.11 30.02 27.92 30.87Z"
              fill="#727272" fill-opacity="1.000000" fill-rule="nonzero"/>
        <path id="Vector"
              d="M26.64 20.75C26.67 21.29 26.7 21.81 26.73 22.34C26.76 23.01 27.62 23.27 27.98 22.69C28.24 22.27 28.5 21.86 28.76 21.45C28.38 21.45 27.99 21.45 27.6 21.45C27.7 21.61 27.76 21.76 27.76 21.95C27.8 22.54 28.47 22.83 28.91 22.43C29.25 22.12 29.47 21.75 29.64 21.32C29.31 21.46 28.98 21.59 28.65 21.73C28.65 21.74 28.65 21.75 28.65 21.75C28.59 21.65 28.53 21.55 28.47 21.45C28.49 21.48 28.5 21.51 28.51 21.54C28.65 21.88 28.95 22.11 29.34 22.01C29.65 21.93 29.95 21.52 29.81 21.18C29.69 20.9 29.57 20.74 29.33 20.56C28.95 20.27 28.48 20.6 28.34 20.96C28.26 21.17 28.12 21.32 27.96 21.47C28.34 21.63 28.73 21.79 29.11 21.95C29.09 21.52 28.98 21.13 28.76 20.77C28.5 20.32 27.87 20.34 27.6 20.77C27.34 21.18 27.08 21.59 26.82 22.01C27.24 22.12 27.66 22.23 28.08 22.35C28.05 21.82 28.02 21.29 27.99 20.76C27.93 19.89 26.59 19.88 26.64 20.75Z"
              fill="#727272" fill-opacity="1.000000" fill-rule="nonzero"/>
        <path id="Vector"
              d="M27 11.81C26.96 12.16 26.94 12.5 26.95 12.84C26.97 13.31 27.53 13.74 27.97 13.43C28.19 13.27 28.33 13.08 28.41 12.81C28.42 12.75 28.44 12.68 28.45 12.62C28.46 12.56 28.5 12.55 28.45 12.6C28.21 12.81 27.97 13.13 27.59 12.67C27.63 12.72 27.62 12.72 27.59 12.66C27.63 12.73 27.65 12.81 27.68 12.87C27.73 12.99 27.81 13.09 27.9 13.18C28.18 13.46 28.59 13.51 28.93 13.32C29.25 13.14 29.35 12.71 29.17 12.39C28.98 12.07 28.57 11.97 28.25 12.15C28.24 12.16 28.22 12.17 28.21 12.18C28.32 12.15 28.43 12.12 28.55 12.09C28.59 12.08 28.91 12.26 28.88 12.27C28.9 12.31 28.9 12.31 28.89 12.28C28.87 12.24 28.86 12.21 28.84 12.17C28.79 12.04 28.72 11.92 28.63 11.81C28.41 11.58 28.07 11.47 27.76 11.57C27.46 11.66 27.27 11.89 27.18 12.17C27.15 12.24 27.15 12.3 27.13 12.37C27.12 12.4 27.11 12.43 27.11 12.46C27.09 12.52 27.09 12.52 27.11 12.46C27.14 12.37 27.2 12.3 27.28 12.26C27.62 12.45 27.96 12.65 28.3 12.85C28.29 12.5 28.31 12.16 28.35 11.82C28.39 11.47 28.01 11.13 27.67 11.14C27.28 11.16 27.05 11.44 27 11.81Z"
              fill="#727272" fill-opacity="1.000000" fill-rule="nonzero"/>
        <path id="Vector"
              d="M26.59 4.88C26.46 5.38 26.53 5.88 26.79 6.32C27.11 6.85 27.83 6.69 28.02 6.16C28.09 5.96 27.98 6.28 28.05 6.08C28.08 6 28.1 6.04 28.03 6.07C27.83 6.18 27.55 6.11 27.49 5.84C27.57 6.19 27.97 6.4 28.32 6.31C28.67 6.21 28.87 5.84 28.79 5.47C28.67 4.96 28.11 4.69 27.61 4.8C27.12 4.92 26.89 5.35 26.72 5.79C27.13 5.74 27.54 5.69 27.95 5.63C27.89 5.52 27.88 5.52 27.86 5.38C27.87 5.46 27.87 5.37 27.87 5.34C27.88 5.15 27.84 5.42 27.89 5.23C27.97 4.89 27.77 4.48 27.41 4.4C27.07 4.33 26.68 4.51 26.59 4.88Z"
              fill="#727272" fill-opacity="1.000000" fill-rule="nonzero"/>
        <path id="Vector"
              d="M7.36 3.28C7.17 3.55 6.99 3.82 6.83 4.11C6.56 4.58 7.01 5.32 7.59 5.1C7.79 5.02 7.99 4.94 8.2 4.87C7.93 4.71 7.65 4.55 7.37 4.39C7.41 4.5 7.43 4.56 7.42 4.67C7.42 5.01 7.73 5.38 8.09 5.34C8.43 5.32 8.72 5.24 9.02 5.09C9.34 4.93 9.43 4.46 9.26 4.17C9.06 3.83 8.67 3.77 8.34 3.92C8.27 3.96 8.15 3.99 8.09 3.99C8.32 4.22 8.54 4.44 8.77 4.67C8.77 4.45 8.74 4.23 8.67 4.03C8.56 3.71 8.2 3.42 7.84 3.56C7.63 3.64 7.43 3.72 7.22 3.79C7.47 4.12 7.73 4.46 7.98 4.79C8.14 4.5 8.32 4.22 8.52 3.96C8.73 3.67 8.56 3.2 8.27 3.04C7.94 2.84 7.58 2.99 7.36 3.28Z"
              fill="#727272" fill-opacity="1.000000" fill-rule="nonzero"/>
        <path id="Vector"
              d="M3.56 10.88C3.3 11.44 3.08 12.02 2.9 12.61C2.79 12.98 3.04 13.32 3.37 13.45C3.66 13.55 3.97 13.49 4.22 13.32C4.33 13.25 4.4 13.18 4.48 13.08C4.79 12.72 4.36 13.19 4.11 12.88C4.05 12.78 4 12.68 3.94 12.58C3.9 12.46 3.93 12.72 3.93 12.72C3.94 12.82 3.97 12.93 4.02 13.02C4.13 13.2 4.31 13.34 4.51 13.4C4.87 13.5 5.34 13.36 5.49 12.99C5.64 12.65 5.59 12.26 5.25 12.06C4.97 11.89 4.47 11.97 4.33 12.3C4.34 12.29 4.36 12.27 4.38 12.26C4.47 12.2 4.57 12.14 4.67 12.08C4.81 12.12 4.94 12.16 5.08 12.2C5.13 12.3 5.19 12.4 5.25 12.5C5.29 12.62 5.26 12.31 5.25 12.28C5.21 12.15 5.15 12.03 5.06 11.93C4.9 11.75 4.68 11.65 4.44 11.63C4.22 11.62 4.02 11.69 3.84 11.81C3.75 11.87 3.68 11.94 3.61 12.02C3.34 12.35 3.53 12.07 3.74 12.14C3.89 12.42 4.05 12.7 4.21 12.98C4.35 12.49 4.52 12.03 4.73 11.57C4.87 11.23 4.82 10.84 4.48 10.64C4.19 10.47 3.7 10.54 3.56 10.88Z"
              fill="#727272" fill-opacity="1.000000" fill-rule="nonzero"/>
        <path id="Vector"
              d="M2.07 18.85C1.92 19.63 1.92 20.38 2.08 21.15C2.15 21.54 2.56 21.68 2.91 21.63C3.1 21.6 3.29 21.48 3.43 21.33C3.48 21.27 3.54 21.2 3.59 21.12C3.61 21.08 3.64 21.04 3.66 21C3.7 20.93 3.69 20.94 3.61 21C3.49 21 3.37 21 3.25 21C3.28 21.01 3.31 21.02 3.35 21.03C3.25 20.97 3.15 20.91 3.05 20.85C3 20.75 3 20.75 3.04 20.87C3.06 20.92 3.09 20.97 3.11 21.03C3.18 21.16 3.28 21.27 3.4 21.35C3.7 21.56 3.98 21.54 4.3 21.39C4.63 21.24 4.71 20.76 4.54 20.47C4.34 20.13 3.95 20.08 3.62 20.23C3.6 20.23 3.57 20.25 3.55 20.26C3.73 20.23 3.9 20.21 4.07 20.19C4.04 20.18 4.02 20.18 3.99 20.17C4.09 20.23 4.19 20.28 4.29 20.34C4.31 20.43 4.31 20.44 4.29 20.37C4.27 20.3 4.24 20.23 4.21 20.17C4.17 20.1 4.13 20.02 4.06 19.96C3.87 19.75 3.61 19.66 3.34 19.68C3.1 19.71 2.89 19.82 2.73 20C2.65 20.08 2.58 20.17 2.52 20.27C2.51 20.3 2.49 20.33 2.48 20.35C2.39 20.48 2.41 20.46 2.55 20.32C2.82 20.47 3.1 20.63 3.38 20.79C3.27 20.27 3.27 19.73 3.37 19.21C3.43 18.85 3.27 18.48 2.9 18.37C2.56 18.29 2.13 18.49 2.07 18.85Z"
              fill="#727272" fill-opacity="1.000000" fill-rule="nonzero"/>
        <path id="Vector"
              d="M3.03 28.61C3.22 28.99 3.4 29.37 3.59 29.75C3.75 30.08 4.21 30.16 4.51 29.99C4.75 29.86 4.91 29.64 4.99 29.37C5.03 29.25 5.05 29.09 5.04 28.97C5.02 28.82 5.08 28.86 5.01 28.93C4.91 28.99 4.81 29.05 4.71 29.11C4.7 29.11 4.69 29.11 4.69 29.12C4.57 29.08 4.46 29.05 4.34 29.03C4.58 29.16 4.69 29.38 5.03 29.38C5.43 29.38 5.52 29.14 5.77 28.9C5.67 28.96 5.57 29.02 5.47 29.08C5.34 28.99 5.21 28.91 5.08 28.83C5.13 29.19 5.59 29.39 5.91 29.3C6.3 29.19 6.43 28.83 6.38 28.47C6.32 28.06 5.94 27.76 5.54 27.72C5.08 27.67 4.78 27.93 4.56 28.3C4.64 28.22 4.72 28.14 4.8 28.06C4.78 28.08 4.75 28.1 4.73 28.12C4.84 28.08 4.95 28.05 5.07 28.03C5.05 28.03 5.02 28.03 5 28.03C5.11 28.06 5.22 28.09 5.34 28.12C5.26 28.07 5.05 27.84 4.87 27.79C4.61 27.72 4.34 27.77 4.13 27.93C3.95 28.07 3.82 28.28 3.75 28.5C3.7 28.64 3.75 28.92 3.68 29.02C3.76 28.94 3.84 28.86 3.92 28.78C3.9 28.79 3.87 28.81 3.84 28.82C4.14 28.9 4.45 28.99 4.76 29.07C4.57 28.69 4.39 28.31 4.2 27.93C3.8 27.15 2.64 27.83 3.03 28.61Z"
              fill="#727272" fill-opacity="1.000000" fill-rule="nonzero"/>
        <path id="Vector"
              d="M7.18 38.66C7.16 39.24 7.76 39.57 8.26 39.41C8.51 39.33 8.68 39.16 8.8 38.94C8.82 38.91 8.83 38.87 8.85 38.83C8.95 38.67 8.85 38.72 8.55 38.98C8.41 38.96 8.47 38.96 8.57 39.01C8.89 39.19 9.3 39.09 9.49 38.77C9.67 38.46 9.56 38.02 9.25 37.84C8.91 37.66 8.54 37.55 8.17 37.7C7.98 37.79 7.82 37.92 7.72 38.1C7.69 38.15 7.65 38.21 7.64 38.27C7.63 38.29 7.62 38.3 7.61 38.32C7.84 38.06 8.08 38.04 8.34 38.25C8.4 38.35 8.46 38.45 8.52 38.55C8.52 38.59 8.52 38.62 8.53 38.66C8.54 38.3 8.21 37.97 7.86 37.98C7.47 38 7.19 38.28 7.18 38.66Z"
              fill="#727272" fill-opacity="1.000000" fill-rule="nonzero"/>
        <path id="Vector"
              d="M32.03 5.15C32.11 5.56 32.25 5.94 32.43 6.31C32.59 6.66 33.05 6.71 33.35 6.56C33.52 6.47 33.66 6.32 33.75 6.15C33.77 6.1 33.79 6.05 33.82 5.99C33.96 5.68 33.81 6.15 33.47 6.11C33.36 6.08 33.24 6.05 33.13 6.02C33.05 5.99 33.24 6.11 33.24 6.11C33.31 6.16 33.36 6.2 33.45 6.23C33.62 6.31 33.8 6.32 33.99 6.3C34.39 6.23 34.63 5.97 34.78 5.6C34.92 5.26 34.63 4.86 34.31 4.77C33.93 4.66 33.63 4.9 33.48 5.24C33.64 4.95 33.84 4.88 34.07 5.05C34.05 5.03 34.03 5.01 34.01 5C33.93 4.92 33.76 4.83 33.65 4.79C33.43 4.74 33.2 4.77 33.01 4.88C32.85 4.98 32.74 5.13 32.67 5.29C32.65 5.33 32.63 5.38 32.61 5.42C32.56 5.56 32.58 5.43 32.67 5.39C32.97 5.47 33.28 5.56 33.58 5.64C33.46 5.37 33.38 5.09 33.32 4.8C33.26 4.44 32.83 4.24 32.5 4.33C32.13 4.42 31.97 4.79 32.03 5.15Z"
              fill="#727272" fill-opacity="1.000000" fill-rule="nonzero"/>
        <path id="Vector"
              d="M33.59 12.9C33.68 13.32 33.77 13.75 33.85 14.18C34 14.89 34.94 14.76 35.15 14.18C35.22 13.99 35.33 13.86 35.48 13.73C35.13 13.68 34.78 13.63 34.42 13.59C34.54 13.86 34.66 14.14 34.78 14.41C34.91 14.72 35.43 14.85 35.7 14.65C35.86 14.53 35.99 14.42 36.09 14.24C36.13 14.18 36.17 14.1 36.19 14.03C36.2 14 36.21 13.96 36.23 13.94C36.34 13.74 36.13 13.68 35.61 13.75C35.56 14.11 35.95 14.42 36.28 14.42C36.68 14.42 36.9 14.11 36.95 13.75C37.03 13.18 36.5 12.67 35.96 12.67C35.69 12.67 35.44 12.8 35.26 12.99C35.17 13.08 35.11 13.18 35.06 13.29C35.02 13.36 34.88 13.59 35.02 13.48C35.32 13.56 35.63 13.64 35.94 13.73C35.82 13.45 35.7 13.18 35.58 12.91C35.4 12.49 34.81 12.51 34.53 12.77C34.2 13.07 34 13.42 33.85 13.82C34.28 13.82 34.71 13.82 35.15 13.82C35.06 13.4 34.97 12.97 34.89 12.54C34.72 11.68 33.42 12.04 33.59 12.9Z"
              fill="#727272" fill-opacity="1.000000" fill-rule="nonzero"/>
        <path id="Vector"
              d="M34.77 23.24C34.73 23.58 34.77 23.92 34.86 24.25C34.97 24.64 35.49 24.91 35.85 24.65C36.09 24.49 36.23 24.31 36.33 24.04C36.36 23.97 36.38 23.9 36.41 23.82C36.45 23.68 36.41 23.87 36.29 23.89C36.17 23.89 36.05 23.89 35.93 23.89C35.82 23.85 35.75 23.78 35.73 23.68C35.71 23.63 35.72 23.65 35.75 23.72C35.76 23.76 35.77 23.81 35.79 23.85C35.86 24.05 35.97 24.22 36.14 24.36C36.51 24.66 36.93 24.61 37.28 24.33C37.57 24.1 37.52 23.61 37.28 23.37C37 23.09 36.62 23.15 36.33 23.37C36.32 23.39 36.3 23.4 36.29 23.41C36.39 23.35 36.49 23.29 36.58 23.23C36.57 23.24 36.55 23.24 36.53 23.25C36.65 23.25 36.77 23.25 36.89 23.25C36.97 23.26 37.09 23.51 37.04 23.36C37 23.24 36.96 23.12 36.89 23.02C36.71 22.71 36.37 22.53 36.02 22.57C35.71 22.6 35.45 22.8 35.28 23.06C35.21 23.17 35.16 23.3 35.12 23.43C35.1 23.47 35.08 23.53 35.07 23.57C35.07 23.63 35.06 23.55 35.17 23.48C35.5 23.61 35.83 23.75 36.16 23.88C36.1 23.66 36.09 23.46 36.11 23.23C36.15 22.87 35.77 22.56 35.44 22.56C35.05 22.56 34.82 22.87 34.77 23.24Z"
              fill="#727272" fill-opacity="1.000000" fill-rule="nonzero"/>
        <path id="Vector"
              d="M34.4 31.2C34.36 31.64 34.4 32.07 34.47 32.51C34.55 33.02 35.27 33.15 35.59 32.81C35.71 32.69 35.83 32.57 35.96 32.45C36.07 32.35 36.19 32.25 36.28 32.19C35.95 32.06 35.62 31.92 35.29 31.79C35.33 31.9 35.33 31.77 35.32 31.89C35.32 31.8 35.26 31.98 35.31 31.9C35.13 32.22 35.23 32.64 35.55 32.83C35.86 33.01 36.29 32.91 36.47 32.58C36.66 32.23 36.72 31.81 36.59 31.42C36.46 31.06 35.97 30.74 35.6 31.02C35.26 31.27 34.94 31.54 34.65 31.85C35.03 31.95 35.4 32.05 35.78 32.15C35.73 31.85 35.73 31.51 35.75 31.19C35.78 30.84 35.43 30.5 35.08 30.51C34.69 30.54 34.43 30.82 34.4 31.2Z"
              fill="#727272" fill-opacity="1.000000" fill-rule="nonzero"/>
        <path id="Vector"
              d="M33.97 40.03C33.73 40.44 33.54 40.89 33.44 41.36C33.36 41.72 33.55 42.09 33.91 42.2C34.29 42.3 34.61 42.07 34.74 41.72C34.78 41.61 34.92 41.37 34.99 41.27C34.67 41.27 34.36 41.27 34.04 41.27C33.96 41.17 33.93 41.06 33.97 40.94C33.91 41.3 34.06 41.66 34.44 41.77C34.76 41.86 35.2 41.66 35.27 41.3C35.33 40.92 35.26 40.59 34.99 40.32C34.76 40.07 34.27 40.03 34.04 40.32C33.78 40.64 33.59 40.97 33.45 41.36C33.88 41.48 34.31 41.6 34.74 41.72C34.83 41.34 34.94 41.05 35.14 40.72C35.32 40.4 35.21 39.97 34.89 39.79C34.58 39.6 34.16 39.72 33.97 40.03Z"
              fill="#727272" fill-opacity="1.000000" fill-rule="nonzero"/>
        <path id="Vector"
              d="M38.89 42.73C38.62 43.1 38.49 43.55 38.46 44C38.45 44.27 38.64 44.53 38.88 44.62C39.14 44.73 39.4 44.67 39.61 44.48C39.94 44.2 40.27 43.91 40.61 43.62C40.25 43.58 39.9 43.53 39.55 43.49C39.52 43.45 39.53 43.39 39.54 43.34C39.54 43.31 39.62 43.21 39.54 43.32C39.35 43.63 39.48 44.06 39.79 44.24C40.11 44.43 40.51 44.31 40.71 44C40.93 43.63 40.93 43.17 40.71 42.8C40.47 42.4 39.98 42.38 39.65 42.66C39.32 42.95 38.99 43.24 38.66 43.52C39.04 43.68 39.42 43.84 39.8 44C39.81 43.8 39.77 44.09 39.81 43.89C39.83 43.83 39.85 43.76 39.87 43.69C39.84 43.78 39.93 43.59 39.93 43.59C39.96 43.53 40 43.47 40.05 43.41C40.27 43.12 40.09 42.65 39.8 42.49C39.47 42.29 39.12 42.44 38.89 42.73Z"
              fill="#727272" fill-opacity="1.000000" fill-rule="nonzero"/>
        <path id="Vector"
              d="M41.38 33.88C41.28 34.39 41.23 34.91 41.23 35.44C41.22 36.1 42.15 36.37 42.48 35.78C42.68 35.41 42.92 35.09 43.22 34.79C42.94 34.83 42.67 34.86 42.4 34.9C42.39 34.89 42.37 34.87 42.36 34.86C42.3 34.77 42.24 34.67 42.18 34.57C42.17 34.53 42.21 34.4 42.17 34.54C42.14 34.63 42.12 34.78 42.11 34.86C42.1 35.08 42.17 35.29 42.29 35.47C42.44 35.66 42.67 35.79 42.92 35.79C43.05 35.79 43.21 35.75 43.33 35.69C43.35 35.68 43.37 35.67 43.39 35.65C43.5 35.59 43.47 35.58 43.3 35.64C43.18 35.61 43.07 35.58 42.96 35.55C42.78 35.46 42.76 35.36 42.78 35.23C42.73 35.59 42.87 35.95 43.25 36.06C43.57 36.14 44.03 35.95 44.08 35.59C44.14 35.2 44.12 34.81 43.82 34.51C43.67 34.37 43.45 34.28 43.24 34.29C43.11 34.29 42.95 34.34 42.84 34.4C42.8 34.42 42.66 34.48 42.74 34.46C42.86 34.46 42.98 34.46 43.1 34.46C43.08 34.46 43.06 34.45 43.04 34.45C43.14 34.5 43.24 34.56 43.34 34.62C43.38 35 43.42 35.09 43.46 34.91C43.48 34.86 43.49 34.81 43.5 34.77C43.52 34.66 43.53 34.55 43.52 34.45C43.5 34.15 43.35 33.86 43.08 33.73C42.81 33.6 42.49 33.62 42.26 33.84C41.89 34.21 41.57 34.63 41.32 35.09C41.73 35.21 42.15 35.32 42.57 35.44C42.58 35.04 42.61 34.63 42.68 34.24C42.74 33.88 42.58 33.51 42.21 33.4C41.88 33.31 41.44 33.52 41.38 33.88Z"
              fill="#727272" fill-opacity="1.000000" fill-rule="nonzero"/>
        <path id="Vector"
              d="M42.28 24.57C42.09 25.03 42.09 25.56 42.23 26.04C42.44 26.7 43.31 26.66 43.53 26.04C43.64 25.71 43.84 25.46 44.1 25.23C43.72 25.07 43.33 24.91 42.95 24.75C42.97 24.98 42.98 25.21 43 25.44C43.02 25.83 43.28 26.07 43.67 26.11C43.88 26.14 44.08 26.07 44.26 25.95C44.34 25.9 44.4 25.84 44.46 25.78C44.49 25.74 44.51 25.72 44.53 25.69C44.62 25.6 44.55 25.62 44.33 25.74C44.22 25.71 44.1 25.68 43.99 25.65C43.95 25.61 43.91 25.57 43.88 25.53C43.84 25.42 43.81 25.31 43.79 25.19C43.79 25.21 43.79 25.23 43.79 25.24C43.82 25.13 43.85 25.02 43.88 24.9C43.87 24.91 43.86 24.93 43.85 24.95C43.4 25.69 44.56 26.37 45.01 25.63C45.28 25.19 45.06 24.62 44.59 24.45C44.34 24.36 44.09 24.38 43.86 24.5C43.77 24.55 43.69 24.63 43.61 24.7C43.59 24.72 43.58 24.74 43.56 24.76C43.47 24.85 43.51 24.85 43.67 24.76C43.89 24.99 44.12 25.21 44.34 25.44C44.33 25.21 44.31 24.98 44.3 24.75C44.26 24.15 43.6 23.88 43.15 24.27C42.72 24.66 42.42 25.14 42.23 25.68C42.66 25.68 43.1 25.68 43.53 25.68C43.44 25.4 43.47 25.19 43.58 24.93C43.72 24.59 43.43 24.18 43.11 24.09C42.72 23.99 42.42 24.23 42.28 24.57Z"
              fill="#727272" fill-opacity="1.000000" fill-rule="nonzero"/>
        <path id="Vector"
              d="M41.72 12.72C41.76 13.09 41.8 13.48 41.84 13.86C41.87 14.19 42.06 14.48 42.42 14.52C42.74 14.56 43.07 14.36 43.16 14.04C43.23 13.75 43.33 13.49 43.47 13.23C43.09 13.23 42.7 13.23 42.31 13.23C42.38 13.36 42.45 13.48 42.51 13.6C42.75 14.07 43.41 14.01 43.67 13.6C43.69 13.57 43.72 13.54 43.72 13.52C43.79 13.46 43.75 13.46 43.58 13.54C43.51 13.58 43.44 13.59 43.37 13.57C43.29 13.49 43.21 13.41 43.13 13.33C43.12 13.31 43.12 13.29 43.11 13.27C43.37 14.1 44.67 13.75 44.41 12.91C44.27 12.49 43.91 12.22 43.46 12.24C43.02 12.25 42.72 12.58 42.5 12.92C42.89 12.92 43.28 12.92 43.66 12.92C43.6 12.79 43.53 12.67 43.47 12.54C43.23 12.1 42.54 12.11 42.31 12.54C42.11 12.9 41.96 13.28 41.86 13.68C42.3 13.73 42.74 13.8 43.18 13.86C43.14 13.48 43.1 13.09 43.07 12.72C43.03 12.35 42.79 12.04 42.4 12.04C42.06 12.04 41.69 12.35 41.72 12.72Z"
              fill="#727272" fill-opacity="1.000000" fill-rule="nonzero"/>
        <path id="Vector"
              d="M38.39 5.15C38.56 5.59 38.77 5.95 39.07 6.31C39.41 6.72 40.05 6.45 40.19 6.01C40.3 5.69 40.34 5.34 40.31 5C39.89 5.11 39.48 5.22 39.06 5.34C39.19 5.59 39.37 5.82 39.59 6C39.87 6.23 40.27 6.28 40.54 6C40.78 5.76 40.82 5.28 40.54 5.05C40.46 4.98 40.38 4.91 40.32 4.83C40.25 4.75 40.36 4.9 40.3 4.81C40.27 4.76 40.24 4.71 40.22 4.66C40.08 4.39 39.73 4.27 39.45 4.34C39.19 4.42 38.93 4.7 38.96 5C38.99 5.28 38.98 5.39 38.89 5.65C39.27 5.55 39.64 5.45 40.02 5.35C39.96 5.29 39.9 5.2 39.84 5.08C39.8 5.03 39.77 4.97 39.74 4.92C39.73 4.9 39.66 4.73 39.68 4.8C39.55 4.46 39.23 4.22 38.85 4.33C38.54 4.41 38.26 4.81 38.39 5.15Z"
              fill="#727272" fill-opacity="1.000000" fill-rule="nonzero"/>
        <path id="Vector"
              d="M45.18 4.63C45.24 4.92 45.35 5.19 45.49 5.44C45.65 5.7 45.96 5.84 46.25 5.75C46.56 5.67 46.72 5.4 46.75 5.1C46.78 4.79 46.81 4.46 46.84 4.15C46.5 4.34 46.17 4.54 45.83 4.74C46.03 4.89 46.24 5.05 46.44 5.2C46.74 5.42 47.2 5.25 47.36 4.96C47.57 4.61 47.41 4.25 47.12 4.03C46.92 3.88 46.71 3.72 46.5 3.57C46.31 3.43 46.01 3.45 45.83 3.57C45.61 3.7 45.52 3.91 45.49 4.15C45.46 4.47 45.43 4.79 45.4 5.11C45.82 4.99 46.23 4.88 46.66 4.76C46.55 4.58 46.52 4.5 46.48 4.28C46.41 3.91 45.98 3.71 45.65 3.8C45.28 3.9 45.12 4.27 45.18 4.63Z"
              fill="#727272" fill-opacity="1.000000" fill-rule="nonzero"/>
        <path id="Vector"
              d="M48.17 12.75C48.23 13.12 48.32 13.48 48.44 13.84C48.58 14.27 49.03 14.45 49.43 14.25C49.68 14.12 49.83 13.89 49.9 13.62C49.93 13.5 49.93 13.37 49.94 13.24C49.94 13.19 49.95 13.15 49.95 13.1C49.94 13.29 49.82 13.41 49.57 13.48C49.46 13.45 49.35 13.41 49.23 13.39C49.76 13.65 50.17 13.82 50.78 13.69C51.62 13.5 51.26 12.19 50.42 12.39C50.21 12.44 50.09 12.31 49.91 12.22C49.59 12.07 49.23 12.09 48.96 12.3C48.75 12.47 48.66 12.69 48.62 12.95C48.61 13.05 48.61 13.14 48.6 13.24C48.59 13.33 48.59 13.33 48.6 13.27C48.56 13.42 48.61 13.36 48.75 13.08C49.08 13.22 49.41 13.36 49.74 13.49C49.62 13.13 49.53 12.77 49.47 12.39C49.4 12.03 48.96 11.83 48.64 11.92C48.26 12.02 48.11 12.39 48.17 12.75Z"
              fill="#727272" fill-opacity="1.000000" fill-rule="nonzero"/>
        <path id="Vector"
              d="M49.74 22.53C49.69 22.87 49.64 23.22 49.6 23.56C49.56 23.86 49.62 24.16 49.91 24.32C50.14 24.46 50.54 24.45 50.72 24.22C50.82 24.09 50.92 23.98 51.08 23.92C50.79 23.71 50.51 23.49 50.22 23.27C50.23 23.54 50.24 23.81 50.25 24.08C50.26 24.53 50.66 24.84 51.1 24.73C51.31 24.68 51.49 24.58 51.66 24.44L51.83 24.31C51.82 24.29 51.6 24.31 51.55 24.25C51.49 24.15 51.44 24.05 51.38 23.95C51.39 23.98 51.39 24 51.4 24.02C51.68 24.84 52.98 24.49 52.7 23.66C52.54 23.22 52.18 22.96 51.7 22.98C51.51 22.98 51.31 23.04 51.14 23.14C51.01 23.22 50.88 23.39 50.73 23.43C51.01 23.64 51.3 23.86 51.58 24.08C51.57 23.81 51.57 23.54 51.56 23.27C51.55 22.85 51.13 22.47 50.71 22.62C50.34 22.75 50 22.94 49.76 23.26C50.14 23.48 50.51 23.7 50.89 23.92C50.93 23.58 50.98 23.23 51.03 22.89C51.08 22.53 50.94 22.16 50.56 22.06C50.25 21.97 49.79 22.16 49.74 22.53Z"
              fill="#727272" fill-opacity="1.000000" fill-rule="nonzero"/>
        <path id="Vector"
              d="M47.8 33.73C47.71 34.11 47.62 34.49 47.53 34.88C47.44 35.23 47.63 35.62 48 35.71C48.32 35.8 48.63 35.73 48.89 35.52C49.1 35.35 49.18 35.09 49.37 34.92C49.27 34.98 49.18 35.04 49.08 35.09C49.11 35.08 49.14 35.07 49.18 35.05C49.05 35.05 48.94 35.05 48.82 35.05C48.85 35.06 48.88 35.07 48.92 35.07C48.78 34.97 48.65 34.86 48.51 34.76C48.5 34.71 48.51 34.72 48.52 34.81C48.55 34.89 48.58 34.96 48.62 35.04C48.71 35.19 48.85 35.29 49 35.36C49.16 35.43 49.34 35.44 49.52 35.41C49.57 35.4 49.63 35.38 49.69 35.36C49.95 35.27 49.9 35.25 49.53 35.28C49.44 35.2 49.36 35.12 49.28 35.04C49.29 35.05 49.31 35.07 49.31 35.09C49.28 34.97 49.25 34.86 49.22 34.74C49.22 34.76 49.22 34.78 49.22 34.8C49.18 35.67 50.53 35.67 50.57 34.8C50.58 34.43 50.33 34.12 49.99 34.01C49.83 33.96 49.65 33.96 49.48 34C49.42 34.01 49.19 34.06 49.26 34.07C49.37 34.1 49.48 34.13 49.6 34.16C49.58 34.14 49.56 34.13 49.54 34.11C49.62 34.19 49.7 34.27 49.78 34.36C49.75 34.29 49.68 34.05 49.57 33.94C49.39 33.76 49.06 33.67 48.82 33.74C48.62 33.8 48.45 33.91 48.31 34.06C48.24 34.14 48.18 34.23 48.13 34.33C48.11 34.36 48.09 34.39 48.08 34.42C47.95 34.59 48.05 34.58 48.36 34.4C48.52 34.68 48.67 34.95 48.83 35.23C48.92 34.85 49.02 34.47 49.11 34.08C49.31 33.24 48.01 32.88 47.8 33.73Z"
              fill="#727272" fill-opacity="1.000000" fill-rule="nonzero"/>
        <path id="Vector"
              d="M46.38 41.86C46.48 41.94 46.57 42.01 46.67 42.09C46.96 42.32 47.43 42.14 47.59 41.85C47.79 41.5 47.64 41.14 47.35 40.92C47.25 40.85 47.15 40.77 47.05 40.69C46.77 40.47 46.3 40.65 46.14 40.94C45.93 41.28 46.09 41.64 46.38 41.86Z"
              fill="#727272" fill-opacity="1.000000" fill-rule="nonzero"/>
    </svg>
</svg>
