<svg width="80.000000" height="80.000000" viewBox="0 0 80 80" fill="none" xmlns="http://www.w3.org/2000/svg" xmlns:xlink="http://www.w3.org/1999/xlink">
	<desc>
			Created with Pixso.
	</desc>
	<defs>
		<clipPath id="clip11_5150">
			<rect id="thank-you 1" rx="0.000000" width="79.000000" height="79.000000" transform="translate(0.500000 0.500000)" fill="white" fill-opacity="0"/>
		</clipPath>
	</defs>
	<rect id="thank-you 1" rx="0.000000" width="79.000000" height="79.000000" transform="translate(0.500000 0.500000)" fill="#FFFFFF" fill-opacity="0"/>
	<g clip-path="url(#clip11_5150)">
		<path id="Vector" d="M36.69 25.93C37.3 26.16 37.97 25.85 38.21 25.25L38.6 24.22L41.37 24.22L41.76 25.25C41.94 25.71 42.38 26 42.86 26C42.99 26 43.13 25.98 43.27 25.93C43.87 25.7 44.18 25.02 43.95 24.42L41.24 17.24C41.24 17.23 41.24 17.22 41.23 17.21C41.02 16.71 40.54 16.38 40 16.38C40 16.38 39.99 16.38 39.99 16.38C39.45 16.38 38.96 16.71 38.76 17.21C38.75 17.22 38.75 17.23 38.75 17.24L36.02 24.41C35.78 25.02 36.09 25.7 36.69 25.93ZM40.49 21.87L39.49 21.87L39.99 20.56L40.49 21.87Z" fill="#46A358" fill-opacity="1.000000" fill-rule="nonzero"/>
		<path id="Vector" d="M46.33 26C46.97 26 47.5 25.48 47.5 24.83L47.5 21.33L50.27 25.35C50.61 25.83 51.17 26.03 51.7 25.87C52.25 25.7 52.6 25.19 52.6 24.58L52.53 17.54C52.52 16.9 52 16.38 51.36 16.38C51.35 16.38 51.35 16.38 51.35 16.38C50.7 16.39 50.18 16.92 50.18 17.57L50.22 21.14L47.29 16.9C47 16.48 46.47 16.3 45.98 16.45C45.49 16.6 45.15 17.06 45.15 17.57L45.15 24.83C45.15 25.48 45.68 26 46.33 26Z" fill="#46A358" fill-opacity="1.000000" fill-rule="nonzero"/>
		<path id="Vector" d="M55.24 26C55.89 26 56.41 25.48 56.41 24.83L56.41 23.56L58.6 25.68C58.83 25.89 59.12 26 59.42 26C59.72 26 60.03 25.88 60.26 25.65C60.71 25.18 60.7 24.44 60.23 23.99L57.19 21.05L59.95 18.51C60.43 18.07 60.46 17.33 60.02 16.85C59.58 16.38 58.84 16.35 58.36 16.78L56.41 18.58L56.41 17.56C56.41 16.91 55.89 16.38 55.24 16.38C54.6 16.38 54.07 16.91 54.07 17.56L54.07 24.83C54.07 25.48 54.6 26 55.24 26Z" fill="#46A358" fill-opacity="1.000000" fill-rule="nonzero"/>
		<path id="Vector" d="M28.4 26C29.05 26 29.57 25.48 29.57 24.83L29.57 22.24L32.27 22.24L32.27 24.83C32.27 25.48 32.79 26 33.44 26C34.09 26 34.61 25.48 34.61 24.83L34.61 17.56C34.61 16.91 34.09 16.38 33.44 16.38C32.79 16.38 32.27 16.91 32.27 17.56L32.27 19.9L29.57 19.9L29.57 17.56C29.57 16.91 29.05 16.38 28.4 16.38C27.76 16.38 27.23 16.91 27.23 17.56L27.23 24.83C27.23 25.48 27.76 26 28.4 26Z" fill="#46A358" fill-opacity="1.000000" fill-rule="nonzero"/>
		<path id="Vector" d="M25.65 31.64L27.78 34.9L27.77 38.27C27.77 38.92 28.29 39.44 28.94 39.44L28.94 39.44C29.59 39.44 30.11 38.92 30.11 38.27L30.12 34.9L32.24 31.65C32.59 31.11 32.44 30.38 31.9 30.03C31.35 29.68 30.63 29.83 30.27 30.37L28.95 32.41L27.61 30.35C27.25 29.81 26.53 29.66 25.99 30.01C25.44 30.37 25.29 31.09 25.65 31.64Z" fill="#46A358" fill-opacity="1.000000" fill-rule="nonzero"/>
		<path id="Vector" d="M43.72 36C43.72 37.19 44.29 38.16 45.41 38.87C45.99 39.25 46.66 39.44 47.38 39.44L47.38 39.44C48 39.44 48.58 39.31 49.11 39.04C50.41 38.39 51.12 37.31 51.12 36L51.12 30.99C51.12 30.35 50.6 29.82 49.95 29.82C49.3 29.82 48.78 30.35 48.78 30.99L48.78 36C48.78 36.3 48.69 36.63 48.05 36.95C47.85 37.05 47.63 37.1 47.38 37.1C47.38 37.1 47.38 37.1 47.38 37.1C47.11 37.1 46.88 37.03 46.67 36.9C46.11 36.55 46.07 36.27 46.07 36L46.07 30.99C46.07 30.35 45.54 29.82 44.89 29.82C44.25 29.82 43.72 30.35 43.72 30.99L43.72 36L43.72 36Z" fill="#46A358" fill-opacity="1.000000" fill-rule="nonzero"/>
		<path id="Vector" d="M20.76 18.73L21.59 18.73L21.59 24.83C21.59 25.48 22.11 26 22.76 26C23.41 26 23.93 25.48 23.93 24.83L23.93 18.73L24.78 18.73C25.42 18.73 25.95 18.2 25.95 17.56C25.95 16.91 25.42 16.38 24.78 16.38L20.76 16.38C20.11 16.38 19.59 16.91 19.59 17.56C19.59 18.2 20.11 18.73 20.76 18.73Z" fill="#46A358" fill-opacity="1.000000" fill-rule="nonzero"/>
		<path id="Vector" d="M37.63 29.82C34.97 29.82 32.82 31.98 32.82 34.63C32.82 37.28 34.97 39.44 37.63 39.44C40.28 39.44 42.44 37.28 42.44 34.63C42.44 31.98 40.28 29.82 37.63 29.82ZM37.63 37.1C36.27 37.1 35.16 35.99 35.16 34.63C35.16 33.27 36.27 32.17 37.63 32.17C38.99 32.17 40.09 33.27 40.09 34.63C40.09 35.99 38.99 37.1 37.63 37.1Z" fill="#46A358" fill-opacity="1.000000" fill-rule="nonzero"/>
		<path id="Vector" d="M70.79 28.07L67.34 24.47L67.34 9.46C67.34 7.37 65.64 5.67 63.55 5.67L49.29 5.67C49.28 5.67 49.28 5.66 49.28 5.66L46.51 2.77C44.79 0.98 42.48 0 40 0C37.51 0 35.2 0.98 33.49 2.77L30.7 5.67L16.44 5.67C14.35 5.67 12.65 7.37 12.65 9.46L12.65 24.48L9.2 28.07C8.05 29.27 7.41 30.84 7.41 32.51L7.41 76.21C7.41 78.3 9.11 80 11.2 80L68.79 80C70.88 80 72.58 78.3 72.58 76.21L72.58 32.51C72.58 30.84 71.94 29.27 70.79 28.07ZM69.1 29.69C69.83 30.45 70.23 31.45 70.23 32.51L70.23 35.16L67.34 38.17L67.34 27.86L69.1 29.69ZM35.18 4.39C36.45 3.07 38.16 2.34 40 2.34C41.83 2.34 43.54 3.07 44.81 4.39L46.04 5.67L33.95 5.67L35.18 4.39ZM16.44 8.01L63.55 8.01C64.35 8.01 65 8.66 65 9.46L65 40.62L52.56 53.57L46.5 47.27C44.79 45.48 42.48 44.49 40 44.49C37.51 44.49 35.2 45.48 33.48 47.27L27.43 53.57L14.99 40.62L14.99 9.46C14.99 8.66 15.64 8.01 16.44 8.01ZM25.81 55.27L9.76 71.98L9.76 38.55L25.81 55.27ZM9.76 32.51C9.76 31.45 10.16 30.45 10.89 29.69L12.65 27.86L12.65 38.17L9.76 35.16L9.76 32.51ZM68.79 77.65L11.2 77.65C10.41 77.65 9.76 77 9.76 76.21L9.76 75.37L35.18 48.89C36.45 47.57 38.16 46.84 40 46.84C41.83 46.84 43.54 47.57 44.81 48.89L54.23 58.69C54.68 59.16 55.42 59.18 55.88 58.73C56.35 58.28 56.37 57.54 55.92 57.07L54.18 55.27L70.23 38.55L70.23 71.98L59.69 61C59.24 60.53 58.5 60.52 58.03 60.96C57.56 61.41 57.55 62.15 58 62.62L70.23 75.37L70.23 76.21C70.23 77 69.58 77.65 68.79 77.65Z" fill="#46A358" fill-opacity="1.000000" fill-rule="nonzero"/>
	</g>
</svg>
